<svg xmlns="http://www.w3.org/2000/svg" viewBox="0 0 83.503 28" data-ligne-id="JD123" class=""><g><g><path fill="rgb(226,0,26)" class="picto-outline" device-cmyk="0.00, 1.00, 1.00, 0.00" d="M3.6,0S0,5.4,0,14s3.6,14,3.6,14h31.4V0H3.6Z"/><rect y=".777" width="35" height="26.445" fill="none"/><path d="M7.646,19.394c.159.02.279.02.398.02,2.071,0,2.608-.915,2.608-2.667V6.238h2.607v11.067c0,2.966-1.97,4.458-4.1,4.458-.676,0-1.154-.099-1.513-.159v-2.21Z" fill="#fff"/><path d="M16.762,6.237h5.475c3.841,0,7.364,1.752,7.364,7.245,0,5.673-3.563,7.982-8.162,7.982h-4.677V6.237ZM21.261,19.275c3.125,0,5.673-1.313,5.673-5.474,0-3.523-1.713-5.354-4.917-5.354h-2.648v10.828h1.892Z" fill="#fff"/></g><path class="picto-outline" fill="rgb(23,41,123)" d="M39.333,0h44.1697v28h-44.1697V0.7z"/><path fill="#edd100" d="M43.82 22.33L54.36 22.33L54.36 20.01L50.99 20.01L50.99 5.45L48.52 5.45L43.07 8.43L44.13 10.48L48.03 8.27L48.03 20.01L43.82 20.01ZM56.00 22.33L66.78 22.33L66.78 19.85L59.26 19.85C59.31 19.15 59.44 18.58 60.78 17.56L63.23 15.73C65.39 14.10 66.52 12.80 66.52 10.04C66.52 6.95 64.18 5.25 60.83 5.25C59.33 5.25 57.39 5.78 55.84 6.71L56.81 8.80C57.63 8.36 59.20 7.74 60.61 7.74C62.11 7.74 63.43 8.38 63.43 10.44C63.43 11.91 62.59 12.82 61.14 13.90L59.11 15.42C56.92 17.08 56.00 18.44 56.00 20.16ZM68.26 21.20C69.10 21.69 70.82 22.50 73.09 22.50C77.00 22.50 79.07 20.10 79.07 17.19C79.07 15.13 78.06 13.70 76.38 13.13C77.75 12.49 78.87 11.45 78.87 9.42C78.87 6.99 77.28 5.25 73.93 5.25C71.90 5.25 69.76 5.89 68.20 6.77L69.21 9.05C70.25 8.41 71.72 7.81 73.34 7.81C75.10 7.81 75.83 8.52 75.83 9.88C75.83 11.74 74.33 12.42 72.59 12.42L71.09 12.42L71.09 14.85L73.00 14.85C74.70 14.85 76.09 15.38 76.09 17.16C76.09 18.71 75.08 19.88 72.89 19.88C71.24 19.88 69.74 19.24 69.10 18.91Z"/></g></svg>