<svg xmlns="http://www.w3.org/2000/svg" viewBox="0 0 83.503 28" data-ligne-id="JD137" class=""><g><g><path fill="rgb(226,0,26)" class="picto-outline" device-cmyk="0.00, 1.00, 1.00, 0.00" d="M3.6,0S0,5.4,0,14s3.6,14,3.6,14h31.4V0H3.6Z"/><rect y=".777" width="35" height="26.445" fill="none"/><path d="M7.646,19.394c.159.02.279.02.398.02,2.071,0,2.608-.915,2.608-2.667V6.238h2.607v11.067c0,2.966-1.97,4.458-4.1,4.458-.676,0-1.154-.099-1.513-.159v-2.21Z" fill="#fff"/><path d="M16.762,6.237h5.475c3.841,0,7.364,1.752,7.364,7.245,0,5.673-3.563,7.982-8.162,7.982h-4.677V6.237ZM21.261,19.275c3.125,0,5.673-1.313,5.673-5.474,0-3.523-1.713-5.354-4.917-5.354h-2.648v10.828h1.892Z" fill="#fff"/></g><path class="picto-outline" fill="rgb(23,41,123)" d="M39.333,0h44.1697v28h-44.1697V0.7z"/><path fill="#edd100" d="M43.81 22.25L54.27 22.25L54.27 19.96L50.92 19.96L50.92 5.52L48.47 5.52L43.07 8.47L44.12 10.51L47.99 8.32L47.99 19.96L43.81 19.96ZM55.47 21.14C56.30 21.62 58.01 22.43 60.26 22.43C64.13 22.43 66.19 20.04 66.19 17.16C66.19 15.12 65.18 13.70 63.52 13.13C64.88 12.50 65.99 11.47 65.99 9.46C65.99 7.05 64.42 5.32 61.09 5.32C59.08 5.32 56.96 5.96 55.41 6.83L56.41 9.09C57.44 8.45 58.91 7.86 60.50 7.86C62.25 7.86 62.97 8.56 62.97 9.92C62.97 11.75 61.49 12.43 59.76 12.43L58.27 12.43L58.27 14.84L60.17 14.84C61.86 14.84 63.24 15.36 63.24 17.13C63.24 18.66 62.23 19.82 60.06 19.82C58.42 19.82 56.94 19.19 56.30 18.86ZM70.56 22.25L73.62 22.25C73.62 18.91 73.69 17.83 74.91 16.02L76.40 13.81C78.76 10.31 79.07 9.33 79.07 7.36C79.07 6.66 79.00 6.02 78.94 5.52L68.31 5.52L68.31 7.99L76.05 7.99C76.05 8.19 76.03 8.39 76.01 8.58C75.88 9.37 75.46 10.13 74.26 11.93L73.01 13.79C70.98 16.81 70.56 18.29 70.56 22.25Z"/></g></svg>