<svg xmlns="http://www.w3.org/2000/svg" viewBox="0 0 83.503 28" data-ligne-id="JD161" class=""><g><g><path fill="rgb(226,0,26)" class="picto-outline" device-cmyk="0.00, 1.00, 1.00, 0.00" d="M3.6,0S0,5.4,0,14s3.6,14,3.6,14h31.4V0H3.6Z"/><rect y=".777" width="35" height="26.445" fill="none"/><path d="M7.646,19.394c.159.02.279.02.398.02,2.071,0,2.608-.915,2.608-2.667V6.238h2.607v11.067c0,2.966-1.97,4.458-4.1,4.458-.676,0-1.154-.099-1.513-.159v-2.21Z" fill="#fff"/><path d="M16.762,6.237h5.475c3.841,0,7.364,1.752,7.364,7.245,0,5.673-3.563,7.982-8.162,7.982h-4.677V6.237ZM21.261,19.275c3.125,0,5.673-1.313,5.673-5.474,0-3.523-1.713-5.354-4.917-5.354h-2.648v10.828h1.892Z" fill="#fff"/></g><path class="picto-outline" fill="rgb(23,41,123)" d="M39.333,0h44.1697v28h-44.1697V0.7z"/><path fill="#edd100" d="M43.81 22.18L54.16 22.18L54.16 19.91L50.85 19.91L50.85 5.61L48.42 5.61L43.07 8.53L44.11 10.55L47.94 8.38L47.94 19.91L43.81 19.91ZM61.22 22.38C64.51 22.38 66.62 20.04 66.62 16.70C66.62 13.13 64.19 12.28 62.44 12.28C60.88 12.28 59.45 12.95 58.86 13.32C59.12 9.57 60.81 7.84 63.24 7.84C64.12 7.84 64.73 8.08 65.21 8.32L65.97 6.06C65.21 5.70 63.99 5.41 62.78 5.41C58.17 5.41 55.85 9.42 55.85 14.84C55.85 19.30 57.43 22.38 61.22 22.38ZM61.42 20.08C59.58 20.08 58.86 18.56 58.86 15.53C59.73 15.05 60.75 14.82 61.57 14.82C63.02 14.82 63.65 15.55 63.65 17.22C63.65 18.87 63.04 20.08 61.42 20.08ZM68.72 22.18L79.07 22.18L79.07 19.91L75.76 19.91L75.76 5.61L73.33 5.61L67.98 8.53L69.02 10.55L72.85 8.38L72.85 19.91L68.72 19.91Z"/></g></svg>