<svg xmlns="http://www.w3.org/2000/svg" viewBox="0 0 83.503 28" data-ligne-id="JD173" class=""><g><g><path fill="rgb(226,0,26)" class="picto-outline" device-cmyk="0.00, 1.00, 1.00, 0.00" d="M3.6,0S0,5.4,0,14s3.6,14,3.6,14h31.4V0H3.6Z"/><rect y=".777" width="35" height="26.445" fill="none"/><path d="M7.646,19.394c.159.02.279.02.398.02,2.071,0,2.608-.915,2.608-2.667V6.238h2.607v11.067c0,2.966-1.97,4.458-4.1,4.458-.676,0-1.154-.099-1.513-.159v-2.21Z" fill="#fff"/><path d="M16.762,6.237h5.475c3.841,0,7.364,1.752,7.364,7.245,0,5.673-3.563,7.982-8.162,7.982h-4.677V6.237ZM21.261,19.275c3.125,0,5.673-1.313,5.673-5.474,0-3.523-1.713-5.354-4.917-5.354h-2.648v10.828h1.892Z" fill="#fff"/></g><path class="picto-outline" fill="rgb(23,41,123)" d="M39.333,0h44.1697v28h-44.1697V0.7z"/><path fill="#edd100" d="M43.82 22.33L54.36 22.33L54.36 20.01L50.99 20.01L50.99 5.45L48.52 5.45L43.07 8.43L44.13 10.48L48.03 8.27L48.03 20.01L43.82 20.01ZM58.11 22.33L61.20 22.33C61.20 18.95 61.27 17.87 62.50 16.04L64.00 13.81C66.39 10.28 66.70 9.29 66.70 7.30C66.70 6.60 66.63 5.96 66.56 5.45L55.84 5.45L55.84 7.94L63.65 7.94C63.65 8.14 63.63 8.34 63.61 8.54C63.47 9.33 63.06 10.10 61.84 11.91L60.59 13.79C58.53 16.83 58.11 18.33 58.11 22.33ZM68.26 21.20C69.10 21.69 70.82 22.50 73.09 22.50C77.00 22.50 79.07 20.10 79.07 17.19C79.07 15.13 78.06 13.70 76.38 13.13C77.75 12.49 78.87 11.45 78.87 9.42C78.87 6.99 77.28 5.25 73.93 5.25C71.90 5.25 69.76 5.89 68.20 6.77L69.21 9.05C70.25 8.41 71.72 7.81 73.34 7.81C75.10 7.81 75.83 8.52 75.83 9.88C75.83 11.74 74.33 12.42 72.59 12.42L71.09 12.42L71.09 14.85L73.00 14.85C74.70 14.85 76.09 15.38 76.09 17.16C76.09 18.71 75.08 19.88 72.89 19.88C71.24 19.88 69.74 19.24 69.10 18.91Z"/></g></svg>