<svg xmlns="http://www.w3.org/2000/svg" viewBox="0 0 83.503 28" data-ligne-id="JD19" class=""><g><g><path fill="rgb(226,0,26)" class="picto-outline" device-cmyk="0.00, 1.00, 1.00, 0.00" d="M3.6,0S0,5.4,0,14s3.6,14,3.6,14h31.4V0H3.6Z"/><rect y=".777" width="35" height="26.445" fill="none"/><path d="M7.646,19.394c.159.02.279.02.398.02,2.071,0,2.608-.915,2.608-2.667V6.238h2.607v11.067c0,2.966-1.97,4.458-4.1,4.458-.676,0-1.154-.099-1.513-.159v-2.21Z" fill="#fff"/><path d="M16.762,6.237h5.475c3.841,0,7.364,1.752,7.364,7.245,0,5.673-3.563,7.982-8.162,7.982h-4.677V6.237ZM21.261,19.275c3.125,0,5.673-1.313,5.673-5.474,0-3.523-1.713-5.354-4.917-5.354h-2.648v10.828h1.892Z" fill="#fff"/></g><path class="picto-outline" fill="rgb(23,41,123)" d="M39.333,0h44.1697v28h-44.1697V0.7z"/><path fill="#edd100" d="M48.13 23.70L60.35 23.70L60.35 21.01L56.44 21.01L56.44 4.13L53.58 4.13L47.26 7.59L48.49 9.97L53.01 7.41L53.01 21.01L48.13 21.01ZM62.40 22.86C63.65 23.52 65.78 23.90 67.36 23.90C72.73 23.90 74.88 19.68 74.88 13.60C74.88 7.56 73.14 3.90 68.36 3.90C64.65 3.90 62.14 6.54 62.14 10.58C62.14 14.65 65.26 16.03 67.39 16.03C69.33 16.03 70.69 15.16 71.38 14.72C71.38 18.71 70.15 20.99 67.26 20.99C65.37 20.99 64.11 20.48 63.32 20.15ZM68.46 12.83C66.59 12.83 65.65 11.73 65.65 10.02C65.65 8.20 66.31 6.62 68.41 6.62C70.58 6.62 71.28 9.15 71.28 11.99C70.46 12.52 69.79 12.83 68.46 12.83Z"/></g></svg>