<svg xmlns="http://www.w3.org/2000/svg" viewBox="0 0 83.503 28" data-ligne-id="JD2" class=""><g><g><path fill="rgb(226,0,26)" class="picto-outline" device-cmyk="0.00, 1.00, 1.00, 0.00" d="M3.6,0S0,5.4,0,14s3.6,14,3.6,14h31.4V0H3.6Z"/><rect y=".777" width="35" height="26.445" fill="none"/><path d="M7.646,19.394c.159.02.279.02.398.02,2.071,0,2.608-.915,2.608-2.667V6.238h2.607v11.067c0,2.966-1.97,4.458-4.1,4.458-.676,0-1.154-.099-1.513-.159v-2.21Z" fill="#fff"/><path d="M16.762,6.237h5.475c3.841,0,7.364,1.752,7.364,7.245,0,5.673-3.563,7.982-8.162,7.982h-4.677V6.237ZM21.261,19.275c3.125,0,5.673-1.313,5.673-5.474,0-3.523-1.713-5.354-4.917-5.354h-2.648v10.828h1.892Z" fill="#fff"/></g><path class="picto-outline" fill="rgb(23,41,123)" d="M39.333,0h44.1697v28h-44.1697V0.7z"/><path fill="#edd100" d="M54.84 23.70L67.48 23.70L67.48 20.81L58.67 20.81C58.72 19.98 58.87 19.31 60.45 18.12L63.32 15.97C65.85 14.06 67.17 12.54 67.17 9.31C67.17 5.69 64.43 3.70 60.50 3.70C58.74 3.70 56.47 4.32 54.66 5.41L55.80 7.86C56.76 7.34 58.59 6.62 60.24 6.62C62.00 6.62 63.55 7.37 63.55 9.77C63.55 11.50 62.57 12.56 60.86 13.83L58.49 15.61C55.93 17.55 54.84 19.15 54.84 21.17Z"/></g></svg>