<svg xmlns="http://www.w3.org/2000/svg" viewBox="0 0 83.503 28" data-ligne-id="JD243" class=""><g><g><path fill="rgb(226,0,26)" class="picto-outline" device-cmyk="0.00, 1.00, 1.00, 0.00" d="M3.6,0S0,5.4,0,14s3.6,14,3.6,14h31.4V0H3.6Z"/><rect y=".777" width="35" height="26.445" fill="none"/><path d="M7.646,19.394c.159.02.279.02.398.02,2.071,0,2.608-.915,2.608-2.667V6.238h2.607v11.067c0,2.966-1.97,4.458-4.1,4.458-.676,0-1.154-.099-1.513-.159v-2.21Z" fill="#fff"/><path d="M16.762,6.237h5.475c3.841,0,7.364,1.752,7.364,7.245,0,5.673-3.563,7.982-8.162,7.982h-4.677V6.237ZM21.261,19.275c3.125,0,5.673-1.313,5.673-5.474,0-3.523-1.713-5.354-4.917-5.354h-2.648v10.828h1.892Z" fill="#fff"/></g><path class="picto-outline" fill="rgb(23,41,123)" d="M39.333,0h44.1697v28h-44.1697V0.7z"/><path fill="#edd100" d="M43.23 22.35L54.04 22.35L54.04 19.87L46.50 19.87C46.54 19.16 46.67 18.59 48.02 17.57L50.48 15.73C52.65 14.10 53.77 12.79 53.77 10.03C53.77 6.93 51.43 5.23 48.07 5.23C46.56 5.23 44.62 5.76 43.07 6.69L44.04 8.79C44.86 8.35 46.43 7.73 47.85 7.73C49.35 7.73 50.68 8.37 50.68 10.43C50.68 11.91 49.84 12.82 48.38 13.90L46.34 15.42C44.15 17.08 43.23 18.45 43.23 20.18ZM55.43 19.34L62.46 19.34L62.46 22.35L65.25 22.35L65.25 19.34L67.39 19.34L67.39 16.88L65.25 16.88L65.25 5.43L61.29 5.43L55.43 16.77ZM57.97 16.88L61.31 10.36C61.91 9.21 62.31 8.33 62.46 7.73L62.46 16.88ZM68.24 21.22C69.08 21.70 70.80 22.52 73.08 22.52C76.99 22.52 79.07 20.11 79.07 17.19C79.07 15.14 78.05 13.70 76.37 13.13C77.74 12.48 78.87 11.44 78.87 9.41C78.87 6.98 77.28 5.23 73.92 5.23C71.88 5.23 69.74 5.87 68.17 6.76L69.19 9.03C70.23 8.39 71.71 7.80 73.32 7.80C75.09 7.80 75.82 8.50 75.82 9.87C75.82 11.73 74.32 12.42 72.57 12.42L71.07 12.42L71.07 14.85L72.99 14.85C74.69 14.85 76.09 15.38 76.09 17.17C76.09 18.72 75.07 19.89 72.88 19.89C71.22 19.89 69.72 19.25 69.08 18.92Z"/></g></svg>