<svg xmlns="http://www.w3.org/2000/svg" viewBox="0 0 83.503 28" data-ligne-id="JD28" class=""><g><g><path fill="rgb(226,0,26)" class="picto-outline" device-cmyk="0.00, 1.00, 1.00, 0.00" d="M3.6,0S0,5.4,0,14s3.6,14,3.6,14h31.4V0H3.6Z"/><rect y=".777" width="35" height="26.445" fill="none"/><path d="M7.646,19.394c.159.02.279.02.398.02,2.071,0,2.608-.915,2.608-2.667V6.238h2.607v11.067c0,2.966-1.97,4.458-4.1,4.458-.676,0-1.154-.099-1.513-.159v-2.21Z" fill="#fff"/><path d="M16.762,6.237h5.475c3.841,0,7.364,1.752,7.364,7.245,0,5.673-3.563,7.982-8.162,7.982h-4.677V6.237ZM21.261,19.275c3.125,0,5.673-1.313,5.673-5.474,0-3.523-1.713-5.354-4.917-5.354h-2.648v10.828h1.892Z" fill="#fff"/></g><path class="picto-outline" fill="rgb(23,41,123)" d="M39.333,0h44.1697v28h-44.1697V0.7z"/><path fill="#edd100" d="M47.45 23.70L59.96 23.70L59.96 20.84L51.24 20.84C51.29 20.02 51.44 19.35 53.00 18.18L55.84 16.05C58.35 14.16 59.65 12.65 59.65 9.45C59.65 5.87 56.94 3.90 53.05 3.90C51.31 3.90 49.06 4.52 47.27 5.59L48.40 8.02C49.34 7.51 51.16 6.79 52.80 6.79C54.54 6.79 56.07 7.54 56.07 9.91C56.07 11.63 55.10 12.68 53.41 13.93L51.06 15.69C48.53 17.61 47.45 19.20 47.45 21.19ZM62.21 18.51C62.21 21.30 64.00 23.90 68.19 23.90C72.62 23.90 74.87 21.01 74.87 17.92C74.87 15.57 73.59 13.93 71.19 12.86C72.64 12.17 74.08 10.81 74.08 8.56C74.08 5.75 72.11 3.90 68.70 3.90C65.43 3.90 62.77 5.93 62.77 9.33C62.77 10.84 63.28 12.32 65.38 13.60C63.72 14.52 62.21 15.95 62.21 18.51ZM68.55 11.94C66.79 11.19 66.48 10.20 66.48 9.17C66.48 7.28 67.50 6.62 68.65 6.62C70.03 6.62 70.55 7.54 70.55 8.84C70.55 10.22 69.96 11.24 68.55 11.94ZM65.87 18.41C65.87 16.95 66.48 15.62 67.68 14.90C69.91 15.69 71.24 16.39 71.24 18.43C71.24 20.12 70.32 21.35 68.58 21.35C67.07 21.35 65.87 20.43 65.87 18.41Z"/></g></svg>