<svg xmlns="http://www.w3.org/2000/svg" viewBox="0 0 83.503 28" data-ligne-id="JD415" class=""><g><g><path fill="rgb(226,0,26)" class="picto-outline" device-cmyk="0.00, 1.00, 1.00, 0.00" d="M3.6,0S0,5.4,0,14s3.6,14,3.6,14h31.4V0H3.6Z"/><rect y=".777" width="35" height="26.445" fill="none"/><path d="M7.646,19.394c.159.02.279.02.398.02,2.071,0,2.608-.915,2.608-2.667V6.238h2.607v11.067c0,2.966-1.97,4.458-4.1,4.458-.676,0-1.154-.099-1.513-.159v-2.21Z" fill="#fff"/><path d="M16.762,6.237h5.475c3.841,0,7.364,1.752,7.364,7.245,0,5.673-3.563,7.982-8.162,7.982h-4.677V6.237ZM21.261,19.275c3.125,0,5.673-1.313,5.673-5.474,0-3.523-1.713-5.354-4.917-5.354h-2.648v10.828h1.892Z" fill="#fff"/></g><path class="picto-outline" fill="rgb(23,41,123)" d="M39.333,0h44.1697v28h-44.1697V0.7z"/><path fill="#edd100" d="M43.07 19.13L49.95 19.13L49.95 22.07L52.68 22.07L52.68 19.13L54.77 19.13L54.77 16.73L52.68 16.73L52.68 5.52L48.80 5.52L43.07 16.62ZM45.56 16.73L48.83 10.35C49.41 9.22 49.80 8.36 49.95 7.77L49.95 16.73ZM56.51 22.07L66.85 22.07L66.85 19.80L63.54 19.80L63.54 5.52L61.11 5.52L55.77 8.44L56.81 10.45L60.64 8.29L60.64 19.80L56.51 19.80ZM68.51 21.19C69.49 21.64 71.20 22.27 73.19 22.27C77.19 22.27 79.07 19.76 79.07 16.53C79.07 13.33 77.23 11.67 74.07 11.67L71.95 11.67L72.10 7.90L78.72 7.90L78.72 5.52L69.29 5.52L69.01 14.07L73.10 14.07C75.09 14.07 76.13 14.78 76.13 16.71C76.13 18.70 75.02 19.84 72.84 19.84C71.67 19.84 70.14 19.52 69.10 19.15Z"/></g></svg>