<svg xmlns="http://www.w3.org/2000/svg" viewBox="0 0 83.503 28" data-ligne-id="JD427" class=""><g><g><path fill="rgb(226,0,26)" class="picto-outline" device-cmyk="0.00, 1.00, 1.00, 0.00" d="M3.6,0S0,5.4,0,14s3.6,14,3.6,14h31.4V0H3.6Z"/><rect y=".777" width="35" height="26.445" fill="none"/><path d="M7.646,19.394c.159.02.279.02.398.02,2.071,0,2.608-.915,2.608-2.667V6.238h2.607v11.067c0,2.966-1.97,4.458-4.1,4.458-.676,0-1.154-.099-1.513-.159v-2.21Z" fill="#fff"/><path d="M16.762,6.237h5.475c3.841,0,7.364,1.752,7.364,7.245,0,5.673-3.563,7.982-8.162,7.982h-4.677V6.237ZM21.261,19.275c3.125,0,5.673-1.313,5.673-5.474,0-3.523-1.713-5.354-4.917-5.354h-2.648v10.828h1.892Z" fill="#fff"/></g><path class="picto-outline" fill="rgb(23,41,123)" d="M39.333,0h44.1697v28h-44.1697V0.7z"/><path fill="#edd100" d="M43.07 19.15L49.98 19.15L49.98 22.10L52.71 22.10L52.71 19.15L54.82 19.15L54.82 16.74L52.71 16.74L52.71 5.49L48.82 5.49L43.07 16.63ZM45.57 16.74L48.85 10.33C49.43 9.21 49.82 8.34 49.98 7.75L49.98 16.74ZM56.05 22.10L66.67 22.10L66.67 19.67L59.27 19.67C59.31 18.98 59.44 18.41 60.77 17.41L63.18 15.61C65.30 14.00 66.41 12.72 66.41 10.01C66.41 6.97 64.11 5.30 60.81 5.30C59.33 5.30 57.42 5.82 55.90 6.73L56.86 8.79C57.66 8.36 59.20 7.75 60.59 7.75C62.07 7.75 63.37 8.38 63.37 10.40C63.37 11.85 62.55 12.74 61.11 13.81L59.12 15.31C56.97 16.94 56.05 18.28 56.05 19.98ZM70.62 22.10L73.66 22.10C73.66 18.78 73.73 17.72 74.94 15.91L76.42 13.72C78.77 10.25 79.07 9.27 79.07 7.32C79.07 6.62 79.01 5.99 78.94 5.49L68.39 5.49L68.39 7.95L76.07 7.95C76.07 8.14 76.05 8.34 76.03 8.53C75.90 9.31 75.49 10.07 74.29 11.85L73.06 13.70C71.04 16.70 70.62 18.17 70.62 22.10Z"/></g></svg>