<svg xmlns="http://www.w3.org/2000/svg" viewBox="0 0 83.503 28" data-ligne-id="JD447" class=""><g><g><path fill="rgb(226,0,26)" class="picto-outline" device-cmyk="0.00, 1.00, 1.00, 0.00" d="M3.6,0S0,5.4,0,14s3.6,14,3.6,14h31.4V0H3.6Z"/><rect y=".777" width="35" height="26.445" fill="none"/><path d="M7.646,19.394c.159.02.279.02.398.02,2.071,0,2.608-.915,2.608-2.667V6.238h2.607v11.067c0,2.966-1.97,4.458-4.1,4.458-.676,0-1.154-.099-1.513-.159v-2.21Z" fill="#fff"/><path d="M16.762,6.237h5.475c3.841,0,7.364,1.752,7.364,7.245,0,5.673-3.563,7.982-8.162,7.982h-4.677V6.237ZM21.261,19.275c3.125,0,5.673-1.313,5.673-5.474,0-3.523-1.713-5.354-4.917-5.354h-2.648v10.828h1.892Z" fill="#fff"/></g><path class="picto-outline" fill="rgb(23,41,123)" d="M39.333,0h44.1697v28h-44.1697V0.7z"/><path fill="#edd100" d="M43.07 19.05L49.98 19.05L49.98 22.01L52.71 22.01L52.71 19.05L54.82 19.05L54.82 16.64L52.71 16.64L52.71 5.39L48.82 5.39L43.07 16.53ZM45.57 16.64L48.85 10.24C49.43 9.11 49.82 8.24 49.98 7.65L49.98 16.64ZM55.56 19.05L62.46 19.05L62.46 22.01L65.20 22.01L65.20 19.05L67.30 19.05L67.30 16.64L65.20 16.64L65.20 5.39L61.31 5.39L55.56 16.53ZM58.05 16.64L61.33 10.24C61.92 9.11 62.31 8.24 62.46 7.65L62.46 16.64ZM70.62 22.01L73.66 22.01C73.66 18.68 73.73 17.62 74.94 15.82L76.42 13.62C78.77 10.15 79.07 9.17 79.07 7.22C79.07 6.52 79.01 5.89 78.94 5.39L68.39 5.39L68.39 7.85L76.07 7.85C76.07 8.04 76.05 8.24 76.03 8.43C75.90 9.22 75.49 9.98 74.29 11.76L73.06 13.60C71.04 16.60 70.62 18.08 70.62 22.01Z"/></g></svg>