<svg xmlns="http://www.w3.org/2000/svg" viewBox="0 0 83.503 28" data-ligne-id="JD454" class=""><g><g><path fill="rgb(226,0,26)" class="picto-outline" device-cmyk="0.00, 1.00, 1.00, 0.00" d="M3.6,0S0,5.4,0,14s3.6,14,3.6,14h31.4V0H3.6Z"/><rect y=".777" width="35" height="26.445" fill="none"/><path d="M7.646,19.394c.159.02.279.02.398.02,2.071,0,2.608-.915,2.608-2.667V6.238h2.607v11.067c0,2.966-1.97,4.458-4.1,4.458-.676,0-1.154-.099-1.513-.159v-2.21Z" fill="#fff"/><path d="M16.762,6.237h5.475c3.841,0,7.364,1.752,7.364,7.245,0,5.673-3.563,7.982-8.162,7.982h-4.677V6.237ZM21.261,19.275c3.125,0,5.673-1.313,5.673-5.474,0-3.523-1.713-5.354-4.917-5.354h-2.648v10.828h1.892Z" fill="#fff"/></g><path class="picto-outline" fill="rgb(23,41,123)" d="M39.333,0h44.1697v28h-44.1697V0.7z"/><path fill="#edd100" d="M43.07 19.04L49.84 19.04L49.84 21.94L52.52 21.94L52.52 19.04L54.59 19.04L54.59 16.68L52.52 16.68L52.52 5.65L48.71 5.65L43.07 16.57ZM45.52 16.68L48.73 10.40C49.31 9.29 49.69 8.44 49.84 7.87L49.84 16.68ZM55.87 21.07C56.82 21.51 58.51 22.13 60.46 22.13C64.40 22.13 66.25 19.66 66.25 16.49C66.25 13.34 64.44 11.70 61.34 11.70L59.25 11.70L59.40 7.99L65.91 7.99L65.91 5.65L56.63 5.65L56.35 14.06L60.38 14.06C62.34 14.06 63.36 14.76 63.36 16.66C63.36 18.62 62.27 19.75 60.12 19.75C58.97 19.75 57.46 19.43 56.44 19.06ZM67.55 19.04L74.32 19.04L74.32 21.94L77.01 21.94L77.01 19.04L79.07 19.04L79.07 16.68L77.01 16.68L77.01 5.65L73.19 5.65L67.55 16.57ZM70.00 16.68L73.22 10.40C73.79 9.29 74.17 8.44 74.32 7.87L74.32 16.68Z"/></g></svg>