<svg xmlns="http://www.w3.org/2000/svg" viewBox="0 0 83.503 28" data-ligne-id="JD469" class=""><g><g><path fill="rgb(226,0,26)" class="picto-outline" device-cmyk="0.00, 1.00, 1.00, 0.00" d="M3.6,0S0,5.4,0,14s3.6,14,3.6,14h31.4V0H3.6Z"/><rect y=".777" width="35" height="26.445" fill="none"/><path d="M7.646,19.394c.159.02.279.02.398.02,2.071,0,2.608-.915,2.608-2.667V6.238h2.607v11.067c0,2.966-1.97,4.458-4.1,4.458-.676,0-1.154-.099-1.513-.159v-2.21Z" fill="#fff"/><path d="M16.762,6.237h5.475c3.841,0,7.364,1.752,7.364,7.245,0,5.673-3.563,7.982-8.162,7.982h-4.677V6.237ZM21.261,19.275c3.125,0,5.673-1.313,5.673-5.474,0-3.523-1.713-5.354-4.917-5.354h-2.648v10.828h1.892Z" fill="#fff"/></g><path class="picto-outline" fill="rgb(23,41,123)" d="M39.333,0h44.1697v28h-44.1697V0.7z"/><path fill="#edd100" d="M43.07 19.22L49.94 19.22L49.94 22.15L52.66 22.15L52.66 19.22L54.75 19.22L54.75 16.82L52.66 16.82L52.66 5.63L48.79 5.63L43.07 16.71ZM45.55 16.82L48.81 10.45C49.40 9.33 49.79 8.46 49.94 7.88L49.94 16.82ZM61.43 22.35C64.71 22.35 66.80 20.02 66.80 16.69C66.80 13.13 64.39 12.29 62.64 12.29C61.08 12.29 59.66 12.95 59.07 13.32C59.33 9.59 61.02 7.86 63.44 7.86C64.32 7.86 64.93 8.10 65.40 8.33L66.16 6.09C65.40 5.72 64.19 5.44 62.98 5.44C58.38 5.44 56.07 9.43 56.07 14.83C56.07 19.28 57.65 22.35 61.43 22.35ZM61.62 20.06C59.79 20.06 59.07 18.55 59.07 15.52C59.94 15.05 60.95 14.81 61.77 14.81C63.22 14.81 63.85 15.55 63.85 17.21C63.85 18.85 63.24 20.06 61.62 20.06ZM68.53 21.44C69.59 22.00 71.38 22.33 72.72 22.33C77.26 22.33 79.07 18.76 79.07 13.62C79.07 8.53 77.60 5.44 73.56 5.44C70.43 5.44 68.32 7.66 68.32 11.08C68.32 14.51 70.95 15.68 72.74 15.68C74.38 15.68 75.53 14.94 76.11 14.57C76.11 17.94 75.08 19.87 72.63 19.87C71.04 19.87 69.98 19.43 69.31 19.15ZM73.65 12.98C72.07 12.98 71.27 12.05 71.27 10.60C71.27 9.07 71.84 7.73 73.61 7.73C75.44 7.73 76.03 9.87 76.03 12.26C75.33 12.72 74.77 12.98 73.65 12.98Z"/></g></svg>