<svg xmlns="http://www.w3.org/2000/svg" viewBox="0 0 83.503 28" data-ligne-id="JD474" class=""><g><g><path fill="rgb(226,0,26)" class="picto-outline" device-cmyk="0.00, 1.00, 1.00, 0.00" d="M3.6,0S0,5.4,0,14s3.6,14,3.6,14h31.4V0H3.6Z"/><rect y=".777" width="35" height="26.445" fill="none"/><path d="M7.646,19.394c.159.02.279.02.398.02,2.071,0,2.608-.915,2.608-2.667V6.238h2.607v11.067c0,2.966-1.97,4.458-4.1,4.458-.676,0-1.154-.099-1.513-.159v-2.21Z" fill="#fff"/><path d="M16.762,6.237h5.475c3.841,0,7.364,1.752,7.364,7.245,0,5.673-3.563,7.982-8.162,7.982h-4.677V6.237ZM21.261,19.275c3.125,0,5.673-1.313,5.673-5.474,0-3.523-1.713-5.354-4.917-5.354h-2.648v10.828h1.892Z" fill="#fff"/></g><path class="picto-outline" fill="rgb(23,41,123)" d="M39.333,0h44.1697v28h-44.1697V0.7z"/><path fill="#edd100" d="M43.07 18.95L49.84 18.95L49.84 21.84L52.52 21.84L52.52 18.95L54.59 18.95L54.59 16.58L52.52 16.58L52.52 5.56L48.71 5.56L43.07 16.48ZM45.52 16.58L48.73 10.30C49.31 9.20 49.69 8.35 49.84 7.77L49.84 16.58ZM57.85 21.84L60.83 21.84C60.83 18.59 60.89 17.54 62.08 15.78L63.53 13.63C65.83 10.22 66.13 9.26 66.13 7.35C66.13 6.66 66.06 6.05 66.00 5.56L55.65 5.56L55.65 7.96L63.19 7.96C63.19 8.15 63.17 8.35 63.15 8.54C63.02 9.30 62.61 10.05 61.44 11.79L60.23 13.60C58.25 16.54 57.85 17.99 57.85 21.84ZM67.55 18.95L74.32 18.95L74.32 21.84L77.01 21.84L77.01 18.95L79.07 18.95L79.07 16.58L77.01 16.58L77.01 5.56L73.19 5.56L67.55 16.48ZM70.00 16.58L73.22 10.30C73.79 9.20 74.17 8.35 74.32 7.77L74.32 16.58Z"/></g></svg>