<svg xmlns="http://www.w3.org/2000/svg" viewBox="0 0 83.503 28" data-ligne-id="JD481" class=""><g><g><path fill="rgb(226,0,26)" class="picto-outline" device-cmyk="0.00, 1.00, 1.00, 0.00" d="M3.6,0S0,5.4,0,14s3.6,14,3.6,14h31.4V0H3.6Z"/><rect y=".777" width="35" height="26.445" fill="none"/><path d="M7.646,19.394c.159.02.279.02.398.02,2.071,0,2.608-.915,2.608-2.667V6.238h2.607v11.067c0,2.966-1.97,4.458-4.1,4.458-.676,0-1.154-.099-1.513-.159v-2.21Z" fill="#fff"/><path d="M16.762,6.237h5.475c3.841,0,7.364,1.752,7.364,7.245,0,5.673-3.563,7.982-8.162,7.982h-4.677V6.237ZM21.261,19.275c3.125,0,5.673-1.313,5.673-5.474,0-3.523-1.713-5.354-4.917-5.354h-2.648v10.828h1.892Z" fill="#fff"/></g><path class="picto-outline" fill="rgb(23,41,123)" d="M39.333,0h44.1697v28h-44.1697V0.7z"/><path fill="#edd100" d="M43.07 19.18L49.91 19.18L49.91 22.11L52.62 22.11L52.62 19.18L54.70 19.18L54.70 16.80L52.62 16.80L52.62 5.66L48.77 5.66L43.07 16.69ZM45.54 16.80L48.79 10.45C49.37 9.33 49.76 8.47 49.91 7.89L49.91 16.80ZM55.97 17.74C55.97 20.09 57.48 22.28 61.01 22.28C64.73 22.28 66.62 19.85 66.62 17.25C66.62 15.27 65.54 13.89 63.52 12.99C64.75 12.41 65.95 11.27 65.95 9.38C65.95 7.01 64.30 5.46 61.44 5.46C58.68 5.46 56.45 7.16 56.45 10.02C56.45 11.29 56.88 12.54 58.64 13.61C57.24 14.39 55.97 15.59 55.97 17.74ZM61.31 12.22C59.82 11.59 59.57 10.75 59.57 9.89C59.57 8.30 60.43 7.74 61.39 7.74C62.55 7.74 62.98 8.52 62.98 9.61C62.98 10.78 62.49 11.64 61.31 12.22ZM59.05 17.66C59.05 16.43 59.57 15.31 60.58 14.71C62.45 15.38 63.57 15.96 63.57 17.68C63.57 19.10 62.79 20.13 61.33 20.13C60.06 20.13 59.05 19.36 59.05 17.66ZM68.79 22.11L79.07 22.11L79.07 19.85L75.78 19.85L75.78 5.66L73.37 5.66L68.06 8.56L69.09 10.56L72.90 8.41L72.90 19.85L68.79 19.85Z"/></g></svg>