<svg xmlns="http://www.w3.org/2000/svg" viewBox="0 0 83.503 28" data-ligne-id="JD6" class=""><g><g><path fill="rgb(226,0,26)" class="picto-outline" device-cmyk="0.00, 1.00, 1.00, 0.00" d="M3.6,0S0,5.4,0,14s3.6,14,3.6,14h31.4V0H3.6Z"/><rect y=".777" width="35" height="26.445" fill="none"/><path d="M7.646,19.394c.159.02.279.02.398.02,2.071,0,2.608-.915,2.608-2.667V6.238h2.607v11.067c0,2.966-1.97,4.458-4.1,4.458-.676,0-1.154-.099-1.513-.159v-2.21Z" fill="#fff"/><path d="M16.762,6.237h5.475c3.841,0,7.364,1.752,7.364,7.245,0,5.673-3.563,7.982-8.162,7.982h-4.677V6.237ZM21.261,19.275c3.125,0,5.673-1.313,5.673-5.474,0-3.523-1.713-5.354-4.917-5.354h-2.648v10.828h1.892Z" fill="#fff"/></g><path class="picto-outline" fill="rgb(23,41,123)" d="M39.333,0h44.1697v28h-44.1697V0.7z"/><path fill="#edd100" d="M61.06 23.93C64.94 23.93 67.42 21.17 67.42 17.24C67.42 13.02 64.56 12.03 62.49 12.03C60.65 12.03 58.96 12.82 58.27 13.25C58.58 8.83 60.57 6.79 63.43 6.79C64.48 6.79 65.20 7.07 65.76 7.35L66.65 4.70C65.76 4.26 64.33 3.93 62.90 3.93C57.46 3.93 54.72 8.66 54.72 15.04C54.72 20.30 56.59 23.93 61.06 23.93ZM61.29 21.22C59.12 21.22 58.27 19.43 58.27 15.86C59.30 15.30 60.50 15.02 61.47 15.02C63.18 15.02 63.92 15.88 63.92 17.85C63.92 19.79 63.20 21.22 61.29 21.22Z"/></g></svg>