<svg xmlns="http://www.w3.org/2000/svg" viewBox="0 0 83.503 28" data-ligne-id="JD63" class=""><g><g><path fill="rgb(226,0,26)" class="picto-outline" device-cmyk="0.00, 1.00, 1.00, 0.00" d="M3.6,0S0,5.4,0,14s3.6,14,3.6,14h31.4V0H3.6Z"/><rect y=".777" width="35" height="26.445" fill="none"/><path d="M7.646,19.394c.159.02.279.02.398.02,2.071,0,2.608-.915,2.608-2.667V6.238h2.607v11.067c0,2.966-1.97,4.458-4.1,4.458-.676,0-1.154-.099-1.513-.159v-2.21Z" fill="#fff"/><path d="M16.762,6.237h5.475c3.841,0,7.364,1.752,7.364,7.245,0,5.673-3.563,7.982-8.162,7.982h-4.677V6.237ZM21.261,19.275c3.125,0,5.673-1.313,5.673-5.474,0-3.523-1.713-5.354-4.917-5.354h-2.648v10.828h1.892Z" fill="#fff"/></g><path class="picto-outline" fill="rgb(23,41,123)" d="M39.333,0h44.1697v28h-44.1697V0.7z"/><path fill="#edd100" d="M54.10 23.93C57.98 23.93 60.46 21.17 60.46 17.24C60.46 13.02 57.60 12.03 55.53 12.03C53.69 12.03 52.00 12.82 51.31 13.25C51.62 8.83 53.61 6.79 56.47 6.79C57.52 6.79 58.24 7.07 58.80 7.35L59.69 4.70C58.80 4.26 57.37 3.93 55.94 3.93C50.50 3.93 47.76 8.66 47.76 15.04C47.76 20.30 49.63 23.93 54.10 23.93ZM54.33 21.22C52.16 21.22 51.31 19.43 51.31 15.86C52.33 15.30 53.54 15.02 54.51 15.02C56.22 15.02 56.96 15.88 56.96 17.85C56.96 19.79 56.24 21.22 54.33 21.22ZM61.86 22.40C62.83 22.96 64.83 23.90 67.46 23.90C71.98 23.90 74.38 21.12 74.38 17.75C74.38 15.37 73.20 13.71 71.26 13.05C72.85 12.31 74.15 11.11 74.15 8.76C74.15 5.95 72.31 3.93 68.43 3.93C66.08 3.93 63.60 4.67 61.79 5.69L62.96 8.32C64.16 7.58 65.87 6.89 67.74 6.89C69.78 6.89 70.62 7.71 70.62 9.29C70.62 11.44 68.89 12.23 66.87 12.23L65.13 12.23L65.13 15.04L67.35 15.04C69.32 15.04 70.93 15.65 70.93 17.72C70.93 19.51 69.75 20.86 67.23 20.86C65.31 20.86 63.57 20.12 62.83 19.74Z"/></g></svg>