<svg xmlns="http://www.w3.org/2000/svg" viewBox="0 0 83.503 28" data-ligne-id="JD674" class=""><g><g><path fill="rgb(226,0,26)" class="picto-outline" device-cmyk="0.00, 1.00, 1.00, 0.00" d="M3.6,0S0,5.4,0,14s3.6,14,3.6,14h31.4V0H3.6Z"/><path d="M7.646,19.394c.159.02.279.02.398.02,2.071,0,2.608-.915,2.608-2.667V6.238h2.607v11.067c0,2.966-1.97,4.458-4.1,4.458-.676,0-1.154-.099-1.513-.159v-2.21Z" fill="#fff"/><path d="M16.762,6.237h5.475c3.841,0,7.364,1.752,7.364,7.245,0,5.673-3.563,7.982-8.162,7.982h-4.677V6.237ZM21.261,19.275c3.125,0,5.673-1.313,5.673-5.474,0-3.523-1.713-5.354-4.917-5.354h-2.648v10.828h1.892Z" fill="#fff"/></g><path class="picto-outline" fill="rgb(23,41,123)" d="M39.333,0h44.1697v28h-44.1697V0.7z"/><path fill="#edd100" d="M49.14 23.02C52.68 23.02 54.93 20.50 54.93 16.92C54.93 13.08 52.33 12.18 50.44 12.18C48.77 12.18 47.23 12.90 46.60 13.29C46.88 9.27 48.70 7.41 51.30 7.41C52.26 7.41 52.91 7.66 53.42 7.92L54.24 5.50C53.42 5.10 52.12 4.80 50.82 4.80C45.86 4.80 43.37 9.11 43.37 14.92C43.37 19.71 45.07 23.02 49.14 23.02ZM49.35 20.55C47.37 20.55 46.60 18.92 46.60 15.67C47.54 15.15 48.63 14.90 49.51 14.90C51.07 14.90 51.75 15.69 51.75 17.48C51.75 19.25 51.09 20.55 49.35 20.55ZM57.72 22.81L60.98 22.81C60.98 19.25 61.05 18.11 62.35 16.18L63.93 13.83C66.44 10.11 66.77 9.06 66.77 6.97C66.77 6.22 66.70 5.55 66.63 5.01L55.32 5.01L55.32 7.64L63.56 7.64C63.56 7.85 63.54 8.06 63.51 8.27C63.37 9.11 62.93 9.92 61.65 11.83L60.33 13.80C58.16 17.02 57.72 18.60 57.72 22.81ZM67.04 19.64L74.44 19.64L74.44 22.81L77.37 22.81L77.37 19.64L79.63 19.64L79.63 17.06L77.37 17.06L77.37 5.01L73.21 5.01L67.04 16.95ZM69.72 17.06L73.23 10.20C73.86 8.99 74.28 8.06 74.44 7.43L74.44 17.06Z"/></g></svg>