<svg xmlns="http://www.w3.org/2000/svg" viewBox="0 0 83.503 28" data-ligne-id="JD704" class=""><g><g><path fill="rgb(226,0,26)" class="picto-outline" device-cmyk="0.00, 1.00, 1.00, 0.00" d="M3.6,0S0,5.4,0,14s3.6,14,3.6,14h31.4V0H3.6Z"/><rect y=".777" width="35" height="26.445" fill="none"/><path d="M7.646,19.394c.159.02.279.02.398.02,2.071,0,2.608-.915,2.608-2.667V6.238h2.607v11.067c0,2.966-1.97,4.458-4.1,4.458-.676,0-1.154-.099-1.513-.159v-2.21Z" fill="#fff"/><path d="M16.762,6.237h5.475c3.841,0,7.364,1.752,7.364,7.245,0,5.673-3.563,7.982-8.162,7.982h-4.677V6.237ZM21.261,19.275c3.125,0,5.673-1.313,5.673-5.474,0-3.523-1.713-5.354-4.917-5.354h-2.648v10.828h1.892Z" fill="#fff"/></g><path class="picto-outline" fill="rgb(23,41,123)" d="M39.333,0h44.1697v28h-44.1697V0.7z"/><path fill="#edd100" d="M45.28 22.11L48.29 22.11C48.29 18.83 48.36 17.77 49.56 15.99L51.02 13.82C53.34 10.38 53.64 9.41 53.64 7.48C53.64 6.79 53.58 6.17 53.52 5.67L43.07 5.67L43.07 8.10L50.68 8.10C50.68 8.29 50.66 8.49 50.64 8.68C50.51 9.46 50.10 10.21 48.92 11.97L47.69 13.80C45.69 16.76 45.28 18.22 45.28 22.11ZM60.93 22.31C65.90 22.31 66.71 18.35 66.71 13.93C66.71 9.71 65.57 5.48 60.93 5.48C56.31 5.48 55.17 9.71 55.17 13.93C55.17 18.35 55.99 22.31 60.93 22.31ZM60.93 19.79C59.10 19.79 58.18 18.22 58.18 14.16C58.18 10.70 58.72 8.10 60.93 8.10C63.17 8.10 63.70 10.70 63.70 14.16C63.70 18.22 62.78 19.79 60.93 19.79ZM67.44 19.19L74.28 19.19L74.28 22.11L76.99 22.11L76.99 19.19L79.07 19.19L79.07 16.81L76.99 16.81L76.99 5.67L73.14 5.67L67.44 16.70ZM69.91 16.81L73.16 10.47C73.74 9.35 74.13 8.49 74.28 7.91L74.28 16.81Z"/></g></svg>