<svg xmlns="http://www.w3.org/2000/svg" viewBox="0 0 83.503 28" data-ligne-id="JD724" class=""><g><g><path fill="rgb(226,0,26)" class="picto-outline" device-cmyk="0.00, 1.00, 1.00, 0.00" d="M3.6,0S0,5.4,0,14s3.6,14,3.6,14h31.4V0H3.6Z"/><rect y=".777" width="35" height="26.445" fill="none"/><path d="M7.646,19.394c.159.02.279.02.398.02,2.071,0,2.608-.915,2.608-2.667V6.238h2.607v11.067c0,2.966-1.97,4.458-4.1,4.458-.676,0-1.154-.099-1.513-.159v-2.21Z" fill="#fff"/><path d="M16.762,6.237h5.475c3.841,0,7.364,1.752,7.364,7.245,0,5.673-3.563,7.982-8.162,7.982h-4.677V6.237ZM21.261,19.275c3.125,0,5.673-1.313,5.673-5.474,0-3.523-1.713-5.354-4.917-5.354h-2.648v10.828h1.892Z" fill="#fff"/></g><path class="picto-outline" fill="rgb(23,41,123)" d="M39.333,0h44.1697v28h-44.1697V0.7z"/><path fill="#edd100" d="M45.28 22.02L48.29 22.02C48.29 18.73 48.36 17.68 49.56 15.89L51.02 13.72C53.34 10.28 53.64 9.32 53.64 7.38C53.64 6.69 53.58 6.07 53.52 5.58L43.07 5.58L43.07 8.00L50.68 8.00C50.68 8.20 50.66 8.39 50.64 8.58C50.51 9.36 50.10 10.11 48.92 11.87L47.69 13.70C45.69 16.67 45.28 18.13 45.28 22.02ZM55.58 22.02L66.09 22.02L66.09 19.61L58.76 19.61C58.80 18.92 58.93 18.36 60.24 17.38L62.63 15.59C64.73 14.00 65.83 12.73 65.83 10.05C65.83 7.04 63.55 5.38 60.29 5.38C58.82 5.38 56.93 5.90 55.43 6.80L56.37 8.84C57.17 8.41 58.70 7.81 60.07 7.81C61.53 7.81 62.82 8.43 62.82 10.43C62.82 11.87 62.01 12.75 60.59 13.81L58.61 15.29C56.48 16.90 55.58 18.23 55.58 19.91ZM67.44 19.09L74.28 19.09L74.28 22.02L76.99 22.02L76.99 19.09L79.07 19.09L79.07 16.71L76.99 16.71L76.99 5.58L73.14 5.58L67.44 16.60ZM69.91 16.71L73.16 10.37C73.74 9.25 74.13 8.39 74.28 7.81L74.28 16.71Z"/></g></svg>