<svg xmlns="http://www.w3.org/2000/svg" viewBox="0 0 83.503 28" data-ligne-id="JD75" class=""><g><g><path fill="rgb(226,0,26)" class="picto-outline" device-cmyk="0.00, 1.00, 1.00, 0.00" d="M3.6,0S0,5.4,0,14s3.6,14,3.6,14h31.4V0H3.6Z"/><rect y=".777" width="35" height="26.445" fill="none"/><path d="M7.646,19.394c.159.02.279.02.398.02,2.071,0,2.608-.915,2.608-2.667V6.238h2.607v11.067c0,2.966-1.97,4.458-4.1,4.458-.676,0-1.154-.099-1.513-.159v-2.21Z" fill="#fff"/><path d="M16.762,6.237h5.475c3.841,0,7.364,1.752,7.364,7.245,0,5.673-3.563,7.982-8.162,7.982h-4.677V6.237ZM21.261,19.275c3.125,0,5.673-1.313,5.673-5.474,0-3.523-1.713-5.354-4.917-5.354h-2.648v10.828h1.892Z" fill="#fff"/></g><path class="picto-outline" fill="rgb(23,41,123)" d="M39.333,0h44.1697v28h-44.1697V0.7z"/><path fill="#edd100" d="M49.87 23.70L53.49 23.70C53.49 19.75 53.56 18.48 55.01 16.34L56.77 13.73C59.56 9.59 59.92 8.43 59.92 6.10C59.92 5.28 59.84 4.53 59.77 3.93L47.21 3.93L47.21 6.85L56.35 6.85C56.35 7.09 56.33 7.32 56.30 7.55C56.15 8.48 55.66 9.38 54.24 11.50L52.76 13.70C50.36 17.27 49.87 19.02 49.87 23.70ZM62.32 22.64C63.49 23.18 65.53 23.93 67.91 23.93C72.69 23.93 74.93 20.94 74.93 17.09C74.93 13.26 72.74 11.27 68.96 11.27L66.43 11.27L66.61 6.77L74.52 6.77L74.52 3.93L63.25 3.93L62.92 14.14L67.80 14.14C70.18 14.14 71.42 14.99 71.42 17.29C71.42 19.67 70.10 21.04 67.49 21.04C66.10 21.04 64.26 20.65 63.02 20.21Z"/></g></svg>