<svg xmlns="http://www.w3.org/2000/svg" viewBox="0 0 83.503 28" data-ligne-id="JD781" class=""><g><g><path fill="rgb(226,0,26)" class="picto-outline" device-cmyk="0.00, 1.00, 1.00, 0.00" d="M3.6,0S0,5.4,0,14s3.6,14,3.6,14h31.4V0H3.6Z"/><path d="M7.646,19.394c.159.02.279.02.398.02,2.071,0,2.608-.915,2.608-2.667V6.238h2.607v11.067c0,2.966-1.97,4.458-4.1,4.458-.676,0-1.154-.099-1.513-.159v-2.21Z" fill="#fff"/><path d="M16.762,6.237h5.475c3.841,0,7.364,1.752,7.364,7.245,0,5.673-3.563,7.982-8.162,7.982h-4.677V6.237ZM21.261,19.275c3.125,0,5.673-1.313,5.673-5.474,0-3.523-1.713-5.354-4.917-5.354h-2.648v10.828h1.892Z" fill="#fff"/></g><path class="picto-outline" fill="rgb(23,41,123)" d="M39.333,0h44.1697v28h-44.1697V0.7z"/><path fill="#edd100" d="M45.78 22.84L49.05 22.84C49.05 19.27 49.12 18.12 50.43 16.18L52.02 13.82C54.55 10.08 54.88 9.02 54.88 6.92C54.88 6.17 54.81 5.49 54.74 4.95L43.37 4.95L43.37 7.60L51.65 7.60C51.65 7.81 51.63 8.02 51.60 8.23C51.46 9.07 51.02 9.89 49.73 11.81L48.40 13.79C46.22 17.02 45.78 18.61 45.78 22.84ZM55.74 18.10C55.74 20.65 57.37 23.03 61.21 23.03C65.25 23.03 67.31 20.39 67.31 17.56C67.31 15.41 66.14 13.91 63.94 12.93C65.28 12.30 66.59 11.06 66.59 9.00C66.59 6.43 64.79 4.74 61.68 4.74C58.68 4.74 56.25 6.59 56.25 9.70C56.25 11.08 56.72 12.44 58.64 13.61C57.12 14.45 55.74 15.76 55.74 18.10ZM61.54 12.09C59.92 11.41 59.64 10.50 59.64 9.56C59.64 7.83 60.58 7.22 61.63 7.22C62.89 7.22 63.36 8.06 63.36 9.26C63.36 10.52 62.82 11.46 61.54 12.09ZM59.08 18.00C59.08 16.67 59.64 15.45 60.74 14.80C62.77 15.52 63.99 16.16 63.99 18.03C63.99 19.57 63.15 20.69 61.56 20.69C60.18 20.69 59.08 19.85 59.08 18.00ZM68.45 22.84L79.63 22.84L79.63 20.39L76.05 20.39L76.05 4.95L73.43 4.95L67.66 8.11L68.78 10.29L72.92 7.95L72.92 20.39L68.45 20.39Z"/></g></svg>