<svg xmlns="http://www.w3.org/2000/svg" viewBox="0 0 83.503 28" data-ligne-id="JD794" class=""><g><g><path fill="rgb(226,0,26)" class="picto-outline" device-cmyk="0.00, 1.00, 1.00, 0.00" d="M3.6,0S0,5.4,0,14s3.6,14,3.6,14h31.4V0H3.6Z"/><rect y=".777" width="35" height="26.445" fill="none"/><path d="M7.646,19.394c.159.02.279.02.398.02,2.071,0,2.608-.915,2.608-2.667V6.238h2.607v11.067c0,2.966-1.97,4.458-4.1,4.458-.676,0-1.154-.099-1.513-.159v-2.21Z" fill="#fff"/><path d="M16.762,6.237h5.475c3.841,0,7.364,1.752,7.364,7.245,0,5.673-3.563,7.982-8.162,7.982h-4.677V6.237ZM21.261,19.275c3.125,0,5.673-1.313,5.673-5.474,0-3.523-1.713-5.354-4.917-5.354h-2.648v10.828h1.892Z" fill="#fff"/></g><path class="picto-outline" fill="rgb(23,41,123)" d="M39.333,0h44.1697v28h-44.1697V0.7z"/><path fill="#edd100" d="M45.28 22.10L48.29 22.10C48.29 18.82 48.36 17.76 49.56 15.98L51.02 13.81C53.34 10.37 53.64 9.40 53.64 7.47C53.64 6.78 53.58 6.16 53.52 5.66L43.07 5.66L43.07 8.09L50.68 8.09C50.68 8.28 50.66 8.48 50.64 8.67C50.51 9.44 50.10 10.20 48.92 11.96L47.69 13.79C45.69 16.75 45.28 18.21 45.28 22.10ZM55.71 21.39C56.76 21.95 58.55 22.28 59.88 22.28C64.39 22.28 66.20 18.73 66.20 13.61C66.20 8.54 64.73 5.47 60.72 5.47C57.60 5.47 55.49 7.68 55.49 11.08C55.49 14.50 58.12 15.66 59.90 15.66C61.53 15.66 62.67 14.93 63.25 14.56C63.25 17.91 62.22 19.83 59.79 19.83C58.20 19.83 57.15 19.40 56.48 19.12ZM60.80 12.97C59.23 12.97 58.44 12.05 58.44 10.61C58.44 9.08 59.00 7.75 60.76 7.75C62.59 7.75 63.17 9.87 63.17 12.26C62.48 12.71 61.92 12.97 60.80 12.97ZM67.44 19.18L74.28 19.18L74.28 22.10L76.99 22.10L76.99 19.18L79.07 19.18L79.07 16.79L76.99 16.79L76.99 5.66L73.14 5.66L67.44 16.69ZM69.91 16.79L73.16 10.45C73.74 9.34 74.13 8.48 74.28 7.90L74.28 16.79Z"/></g></svg>