<svg xmlns="http://www.w3.org/2000/svg" viewBox="0 0 83.503 28" data-ligne-id="JD802" class=""><g><g><path fill="rgb(226,0,26)" class="picto-outline" device-cmyk="0.00, 1.00, 1.00, 0.00" d="M3.6,0S0,5.4,0,14s3.6,14,3.6,14h31.4V0H3.6Z"/><path d="M7.646,19.394c.159.02.279.02.398.02,2.071,0,2.608-.915,2.608-2.667V6.238h2.607v11.067c0,2.966-1.97,4.458-4.1,4.458-.676,0-1.154-.099-1.513-.159v-2.21Z" fill="#fff"/><path d="M16.762,6.237h5.475c3.841,0,7.364,1.752,7.364,7.245,0,5.673-3.563,7.982-8.162,7.982h-4.677V6.237ZM21.261,19.275c3.125,0,5.673-1.313,5.673-5.474,0-3.523-1.713-5.354-4.917-5.354h-2.648v10.828h1.892Z" fill="#fff"/></g><path class="picto-outline" fill="rgb(23,41,123)" d="M39.333,0h44.1697v28h-44.1697V0.7z"/><path fill="#edd100" d="M43.37 18.04C43.37 20.55 44.98 22.90 48.76 22.90C52.74 22.90 54.77 20.30 54.77 17.51C54.77 15.39 53.62 13.92 51.45 12.95C52.77 12.33 54.06 11.11 54.06 9.08C54.06 6.55 52.28 4.89 49.22 4.89C46.27 4.89 43.88 6.71 43.88 9.77C43.88 11.13 44.34 12.47 46.23 13.62C44.73 14.45 43.37 15.74 43.37 18.04ZM49.08 12.12C47.49 11.45 47.22 10.56 47.22 9.64C47.22 7.93 48.14 7.33 49.17 7.33C50.42 7.33 50.88 8.16 50.88 9.34C50.88 10.58 50.35 11.50 49.08 12.12ZM46.66 17.95C46.66 16.64 47.22 15.44 48.30 14.79C50.30 15.51 51.50 16.13 51.50 17.97C51.50 19.49 50.67 20.60 49.11 20.60C47.75 20.60 46.66 19.77 46.66 17.95ZM61.10 22.92C66.42 22.92 67.29 18.69 67.29 13.94C67.29 9.43 66.07 4.89 61.10 4.89C56.15 4.89 54.93 9.43 54.93 13.94C54.93 18.69 55.80 22.92 61.10 22.92ZM61.10 20.23C59.14 20.23 58.15 18.55 58.15 14.20C58.15 10.49 58.73 7.70 61.10 7.70C63.49 7.70 64.07 10.49 64.07 14.20C64.07 18.55 63.08 20.23 61.10 20.23ZM68.37 22.71L79.63 22.71L79.63 20.14L71.78 20.14C71.82 19.40 71.96 18.80 73.36 17.74L75.92 15.83C78.18 14.13 79.35 12.77 79.35 9.89C79.35 6.67 76.91 4.89 73.41 4.89C71.85 4.89 69.82 5.45 68.21 6.41L69.22 8.60C70.07 8.14 71.71 7.49 73.18 7.49C74.75 7.49 76.13 8.16 76.13 10.30C76.13 11.85 75.25 12.79 73.73 13.92L71.61 15.51C69.34 17.23 68.37 18.66 68.37 20.46Z"/></g></svg>