<svg xmlns="http://www.w3.org/2000/svg" viewBox="0 0 83.503 28" data-ligne-id="JD81" class=""><g><g><path fill="rgb(226,0,26)" class="picto-outline" device-cmyk="0.00, 1.00, 1.00, 0.00" d="M3.6,0S0,5.4,0,14s3.6,14,3.6,14h31.4V0H3.6Z"/><rect y=".777" width="35" height="26.445" fill="none"/><path d="M7.646,19.394c.159.02.279.02.398.02,2.071,0,2.608-.915,2.608-2.667V6.238h2.607v11.067c0,2.966-1.97,4.458-4.1,4.458-.676,0-1.154-.099-1.513-.159v-2.21Z" fill="#fff"/><path d="M16.762,6.237h5.475c3.841,0,7.364,1.752,7.364,7.245,0,5.673-3.563,7.982-8.162,7.982h-4.677V6.237ZM21.261,19.275c3.125,0,5.673-1.313,5.673-5.474,0-3.523-1.713-5.354-4.917-5.354h-2.648v10.828h1.892Z" fill="#fff"/></g><path class="picto-outline" fill="rgb(23,41,123)" d="M39.333,0h44.1697v28h-44.1697V0.7z"/><path fill="#edd100" d="M47.34 18.51C47.34 21.30 49.13 23.90 53.32 23.90C57.75 23.90 60.00 21.01 60.00 17.92C60.00 15.57 58.72 13.93 56.31 12.86C57.77 12.17 59.20 10.81 59.20 8.56C59.20 5.75 57.23 3.90 53.83 3.90C50.56 3.90 47.90 5.93 47.90 9.33C47.90 10.84 48.41 12.32 50.51 13.60C48.85 14.52 47.34 15.95 47.34 18.51ZM53.68 11.94C51.91 11.19 51.61 10.20 51.61 9.17C51.61 7.28 52.63 6.62 53.78 6.62C55.16 6.62 55.67 7.54 55.67 8.84C55.67 10.22 55.09 11.24 53.68 11.94ZM50.99 18.41C50.99 16.95 51.61 15.62 52.81 14.90C55.03 15.69 56.36 16.39 56.36 18.43C56.36 20.12 55.44 21.35 53.70 21.35C52.20 21.35 50.99 20.43 50.99 18.41ZM62.58 23.70L74.80 23.70L74.80 21.01L70.89 21.01L70.89 4.13L68.03 4.13L61.71 7.59L62.94 9.97L67.46 7.41L67.46 21.01L62.58 21.01Z"/></g></svg>