<svg xmlns="http://www.w3.org/2000/svg" viewBox="0 0 83.503 28" data-ligne-id="JD924" class=""><g><g><path fill="rgb(226,0,26)" class="picto-outline" device-cmyk="0.00, 1.00, 1.00, 0.00" d="M3.6,0S0,5.4,0,14s3.6,14,3.6,14h31.4V0H3.6Z"/><path d="M7.646,19.394c.159.02.279.02.398.02,2.071,0,2.608-.915,2.608-2.667V6.238h2.607v11.067c0,2.966-1.97,4.458-4.1,4.458-.676,0-1.154-.099-1.513-.159v-2.21Z" fill="#fff"/><path d="M16.762,6.237h5.475c3.841,0,7.364,1.752,7.364,7.245,0,5.673-3.563,7.982-8.162,7.982h-4.677V6.237ZM21.261,19.275c3.125,0,5.673-1.313,5.673-5.474,0-3.523-1.713-5.354-4.917-5.354h-2.648v10.828h1.892Z" fill="#fff"/></g><path class="picto-outline" fill="rgb(23,41,123)" d="M39.333,0h44.1697v28h-44.1697V0.7z"/><path fill="#edd100" d="M43.60 21.96C44.73 22.56 46.65 22.91 48.08 22.91C52.92 22.91 54.86 19.10 54.86 13.61C54.86 8.16 53.29 4.86 48.98 4.86C45.63 4.86 43.37 7.24 43.37 10.89C43.37 14.55 46.19 15.80 48.10 15.80C49.85 15.80 51.08 15.02 51.70 14.62C51.70 18.22 50.59 20.28 47.99 20.28C46.28 20.28 45.15 19.81 44.43 19.51ZM49.07 12.92C47.39 12.92 46.53 11.92 46.53 10.38C46.53 8.74 47.13 7.31 49.02 7.31C50.99 7.31 51.61 9.59 51.61 12.15C50.87 12.64 50.27 12.92 49.07 12.92ZM55.59 22.72L66.88 22.72L66.88 20.14L59.01 20.14C59.05 19.40 59.19 18.80 60.60 17.74L63.16 15.82C65.42 14.12 66.60 12.75 66.60 9.87C66.60 6.64 64.15 4.86 60.65 4.86C59.08 4.86 57.05 5.42 55.43 6.39L56.45 8.58C57.30 8.12 58.94 7.47 60.42 7.47C61.98 7.47 63.37 8.14 63.37 10.29C63.37 11.83 62.49 12.78 60.97 13.91L58.85 15.50C56.56 17.23 55.59 18.66 55.59 20.46ZM67.15 19.58L74.48 19.58L74.48 22.72L77.39 22.72L77.39 19.58L79.63 19.58L79.63 17.02L77.39 17.02L77.39 5.07L73.26 5.07L67.15 16.91ZM69.80 17.02L73.28 10.22C73.91 9.02 74.32 8.09 74.48 7.47L74.48 17.02Z"/></g></svg>