<svg xmlns="http://www.w3.org/2000/svg" viewBox="0 0 83.503 28" data-ligne-id="JD959" class=""><g><g><path fill="rgb(226,0,26)" class="picto-outline" device-cmyk="0.00, 1.00, 1.00, 0.00" d="M3.6,0S0,5.4,0,14s3.6,14,3.6,14h31.4V0H3.6Z"/><path d="M7.646,19.394c.159.02.279.02.398.02,2.071,0,2.608-.915,2.608-2.667V6.238h2.607v11.067c0,2.966-1.97,4.458-4.1,4.458-.676,0-1.154-.099-1.513-.159v-2.21Z" fill="#fff"/><path d="M16.762,6.237h5.475c3.841,0,7.364,1.752,7.364,7.245,0,5.673-3.563,7.982-8.162,7.982h-4.677V6.237ZM21.261,19.275c3.125,0,5.673-1.313,5.673-5.474,0-3.523-1.713-5.354-4.917-5.354h-2.648v10.828h1.892Z" fill="#fff"/></g><path class="picto-outline" fill="rgb(23,41,123)" d="M39.333,0h44.1697v28h-44.1697V0.7z"/><path fill="#edd100" d="M43.60 22.14C44.76 22.76 46.71 23.11 48.17 23.11C53.12 23.11 55.10 19.22 55.10 13.62C55.10 8.06 53.50 4.69 49.09 4.69C45.68 4.69 43.37 7.12 43.37 10.84C43.37 14.58 46.24 15.86 48.20 15.86C49.99 15.86 51.24 15.05 51.87 14.65C51.87 18.33 50.74 20.42 48.08 20.42C46.34 20.42 45.18 19.95 44.45 19.65ZM49.19 12.91C47.47 12.91 46.60 11.90 46.60 10.32C46.60 8.65 47.21 7.19 49.14 7.19C51.14 7.19 51.78 9.52 51.78 12.13C51.02 12.63 50.41 12.91 49.19 12.91ZM55.92 21.96C56.98 22.45 58.84 23.13 61.01 23.13C65.36 23.13 67.41 20.40 67.41 16.89C67.41 13.41 65.41 11.59 61.97 11.59L59.66 11.59L59.83 7.49L67.04 7.49L67.04 4.90L56.77 4.90L56.46 14.21L60.91 14.21C63.08 14.21 64.21 14.98 64.21 17.08C64.21 19.25 63.01 20.50 60.63 20.50C59.36 20.50 57.68 20.14 56.55 19.74ZM68.14 22.14C69.29 22.76 71.25 23.11 72.71 23.11C77.65 23.11 79.63 19.22 79.63 13.62C79.63 8.06 78.03 4.69 73.62 4.69C70.21 4.69 67.90 7.12 67.90 10.84C67.90 14.58 70.77 15.86 72.73 15.86C74.52 15.86 75.77 15.05 76.40 14.65C76.40 18.33 75.27 20.42 72.61 20.42C70.87 20.42 69.71 19.95 68.98 19.65ZM73.72 12.91C72.00 12.91 71.13 11.90 71.13 10.32C71.13 8.65 71.74 7.19 73.67 7.19C75.67 7.19 76.31 9.52 76.31 12.13C75.56 12.63 74.94 12.91 73.72 12.91Z"/></g></svg>