<svg xmlns="http://www.w3.org/2000/svg" viewBox="0 0 83.503 28" data-ligne-id="C11" class=""><g><g><path fill="rgb(226,0,26)" class="picto-outline" device-cmyk="0.00, 1.00, 1.00, 0.00" d="M3.6,0S0,5.4,0,14s3.6,14,3.6,14h31.4V0H3.6Z"/><path d="M20.3705,4.3c2.0987,0,3.7564.4389,4.8784.8768l-1.0241,3.3449c-1.0967-.5368-2.3197-.8052-3.807-.8052-3.0512,0-5.9783,2.0492-5.9783,6.4909,0,4.9784,3.2702,6.2709,5.953,6.2709,1.8314,0,2.7102-.44,3.9301-.8746l.9999,2.5608c-1.7072.9988-3.7091,1.5356-5.9309,1.5356-4.2953,0-8.9296-2.3903-8.9296-9.4421,0-6.0036,3.7564-9.9579,9.9084-9.9579" fill="#FFFFFF"/></g><path class="picto-outline" fill="#707173" d="M39.333,0h44.1697v28h-44.1697V0.7z"/><path fill="#FFFFFF" d="M47.96 23.54L60.26 23.54L60.26 20.84L56.32 20.84L56.32 3.86L53.44 3.86L47.09 7.33L48.32 9.73L52.88 7.15L52.88 20.84L47.96 20.84ZM62.76 23.54L75.05 23.54L75.05 20.84L71.12 20.84L71.12 3.86L68.23 3.86L61.88 7.33L63.12 9.73L67.67 7.15L67.67 20.84L62.76 20.84Z"/></g></svg>