<svg xmlns="http://www.w3.org/2000/svg" viewBox="0 0 83.503 28" data-ligne-id="JD125" class=""><g><g><path fill="rgb(226,0,26)" class="picto-outline" device-cmyk="0.00, 1.00, 1.00, 0.00" d="M3.6,0S0,5.4,0,14s3.6,14,3.6,14h31.4V0H3.6Z"/><rect y=".777" width="35" height="26.445" fill="none"/><path d="M7.646,19.394c.159.02.279.02.398.02,2.071,0,2.608-.915,2.608-2.667V6.238h2.607v11.067c0,2.966-1.97,4.458-4.1,4.458-.676,0-1.154-.099-1.513-.159v-2.21Z" fill="#fff"/><path d="M16.762,6.237h5.475c3.841,0,7.364,1.752,7.364,7.245,0,5.673-3.563,7.982-8.162,7.982h-4.677V6.237ZM21.261,19.275c3.125,0,5.673-1.313,5.673-5.474,0-3.523-1.713-5.354-4.917-5.354h-2.648v10.828h1.892Z" fill="#fff"/></g><path class="picto-outline" fill="rgb(23,41,123)" d="M39.333,0h44.1697v28h-44.1697V0.7z"/><path fill="#edd100" d="M43.81 22.23L54.23 22.23L54.23 19.94L50.89 19.94L50.89 5.56L48.45 5.56L43.07 8.50L44.12 10.53L47.97 8.35L47.97 19.94L43.81 19.94ZM55.84 22.23L66.50 22.23L66.50 19.79L59.07 19.79C59.11 19.09 59.24 18.53 60.57 17.52L62.99 15.72C65.12 14.10 66.24 12.82 66.24 10.09C66.24 7.04 63.93 5.36 60.61 5.36C59.13 5.36 57.21 5.89 55.69 6.80L56.65 8.87C57.45 8.44 59.00 7.83 60.39 7.83C61.88 7.83 63.18 8.46 63.18 10.49C63.18 11.95 62.36 12.84 60.92 13.91L58.91 15.41C56.76 17.05 55.84 18.40 55.84 20.10ZM68.44 21.34C69.42 21.80 71.14 22.43 73.14 22.43C77.17 22.43 79.07 19.90 79.07 16.65C79.07 13.43 77.22 11.75 74.04 11.75L71.90 11.75L72.05 7.96L78.72 7.96L78.72 5.56L69.22 5.56L68.94 14.17L73.06 14.17C75.06 14.17 76.11 14.89 76.11 16.83C76.11 18.83 75.00 19.99 72.79 19.99C71.62 19.99 70.07 19.66 69.02 19.29Z"/></g></svg>