<svg xmlns="http://www.w3.org/2000/svg" viewBox="0 0 83.503 28" data-ligne-id="JD127" class=""><g><g><path fill="rgb(226,0,26)" class="picto-outline" device-cmyk="0.00, 1.00, 1.00, 0.00" d="M3.6,0S0,5.4,0,14s3.6,14,3.6,14h31.4V0H3.6Z"/><rect y=".777" width="35" height="26.445" fill="none"/><path d="M7.646,19.394c.159.02.279.02.398.02,2.071,0,2.608-.915,2.608-2.667V6.238h2.607v11.067c0,2.966-1.97,4.458-4.1,4.458-.676,0-1.154-.099-1.513-.159v-2.21Z" fill="#fff"/><path d="M16.762,6.237h5.475c3.841,0,7.364,1.752,7.364,7.245,0,5.673-3.563,7.982-8.162,7.982h-4.677V6.237ZM21.261,19.275c3.125,0,5.673-1.313,5.673-5.474,0-3.523-1.713-5.354-4.917-5.354h-2.648v10.828h1.892Z" fill="#fff"/></g><path class="picto-outline" fill="rgb(23,41,123)" d="M39.333,0h44.1697v28h-44.1697V0.7z"/><path fill="#edd100" d="M43.81 22.16L54.27 22.16L54.27 19.87L50.92 19.87L50.92 5.43L48.47 5.43L43.07 8.39L44.12 10.42L47.99 8.23L47.99 19.87L43.81 19.87ZM55.89 22.16L66.58 22.16L66.58 19.71L59.12 19.71C59.17 19.01 59.30 18.45 60.63 17.44L63.06 15.62C65.20 14.01 66.32 12.72 66.32 9.98C66.32 6.92 64.00 5.24 60.68 5.24C59.19 5.24 57.26 5.76 55.73 6.68L56.70 8.76C57.51 8.32 59.06 7.71 60.46 7.71C61.95 7.71 63.26 8.34 63.26 10.38C63.26 11.84 62.43 12.74 60.98 13.81L58.97 15.32C56.81 16.96 55.89 18.31 55.89 20.02ZM70.56 22.16L73.62 22.16C73.62 18.82 73.69 17.75 74.91 15.93L76.40 13.72C78.76 10.22 79.07 9.24 79.07 7.27C79.07 6.57 79.00 5.94 78.94 5.43L68.31 5.43L68.31 7.90L76.05 7.90C76.05 8.10 76.03 8.30 76.01 8.49C75.88 9.28 75.46 10.05 74.26 11.84L73.01 13.70C70.98 16.72 70.56 18.21 70.56 22.16Z"/></g></svg>