<svg xmlns="http://www.w3.org/2000/svg" viewBox="0 0 83.503 28" data-ligne-id="JD135" class=""><g><g><path fill="rgb(226,0,26)" class="picto-outline" device-cmyk="0.00, 1.00, 1.00, 0.00" d="M3.6,0S0,5.4,0,14s3.6,14,3.6,14h31.4V0H3.6Z"/><rect y=".777" width="35" height="26.445" fill="none"/><path d="M7.646,19.394c.159.02.279.02.398.02,2.071,0,2.608-.915,2.608-2.667V6.238h2.607v11.067c0,2.966-1.97,4.458-4.1,4.458-.676,0-1.154-.099-1.513-.159v-2.21Z" fill="#fff"/><path d="M16.762,6.237h5.475c3.841,0,7.364,1.752,7.364,7.245,0,5.673-3.563,7.982-8.162,7.982h-4.677V6.237ZM21.261,19.275c3.125,0,5.673-1.313,5.673-5.474,0-3.523-1.713-5.354-4.917-5.354h-2.648v10.828h1.892Z" fill="#fff"/></g><path class="picto-outline" fill="rgb(23,41,123)" d="M39.333,0h44.1697v28h-44.1697V0.7z"/><path fill="#edd100" d="M43.81 22.23L54.23 22.23L54.23 19.94L50.89 19.94L50.89 5.56L48.45 5.56L43.07 8.50L44.12 10.53L47.97 8.35L47.97 19.94L43.81 19.94ZM55.43 21.12C56.25 21.60 57.95 22.41 60.20 22.41C64.06 22.41 66.10 20.03 66.10 17.15C66.10 15.13 65.10 13.71 63.45 13.14C64.80 12.51 65.91 11.49 65.91 9.48C65.91 7.09 64.34 5.36 61.03 5.36C59.02 5.36 56.91 6.00 55.36 6.87L56.36 9.11C57.39 8.48 58.85 7.89 60.44 7.89C62.18 7.89 62.90 8.59 62.90 9.94C62.90 11.77 61.42 12.45 59.70 12.45L58.22 12.45L58.22 14.84L60.11 14.84C61.79 14.84 63.16 15.37 63.16 17.13C63.16 18.66 62.16 19.81 60.00 19.81C58.37 19.81 56.89 19.18 56.25 18.85ZM68.44 21.34C69.42 21.80 71.14 22.43 73.14 22.43C77.17 22.43 79.07 19.90 79.07 16.65C79.07 13.43 77.22 11.75 74.04 11.75L71.90 11.75L72.05 7.96L78.72 7.96L78.72 5.56L69.22 5.56L68.94 14.17L73.06 14.17C75.06 14.17 76.11 14.89 76.11 16.83C76.11 18.83 75.00 19.99 72.79 19.99C71.62 19.99 70.07 19.66 69.02 19.29Z"/></g></svg>