<svg xmlns="http://www.w3.org/2000/svg" viewBox="0 0 83.503 28" data-ligne-id="JD169" class=""><g><g><path fill="rgb(226,0,26)" class="picto-outline" device-cmyk="0.00, 1.00, 1.00, 0.00" d="M3.6,0S0,5.4,0,14s3.6,14,3.6,14h31.4V0H3.6Z"/><rect y=".777" width="35" height="26.445" fill="none"/><path d="M7.646,19.394c.159.02.279.02.398.02,2.071,0,2.608-.915,2.608-2.667V6.238h2.607v11.067c0,2.966-1.97,4.458-4.1,4.458-.676,0-1.154-.099-1.513-.159v-2.21Z" fill="#fff"/><path d="M16.762,6.237h5.475c3.841,0,7.364,1.752,7.364,7.245,0,5.673-3.563,7.982-8.162,7.982h-4.677V6.237ZM21.261,19.275c3.125,0,5.673-1.313,5.673-5.474,0-3.523-1.713-5.354-4.917-5.354h-2.648v10.828h1.892Z" fill="#fff"/></g><path class="picto-outline" fill="rgb(23,41,123)" d="M39.333,0h44.1697v28h-44.1697V0.7z"/><path fill="#edd100" d="M43.81 22.22L54.21 22.22L54.21 19.93L50.88 19.93L50.88 5.58L48.44 5.58L43.07 8.51L44.11 10.54L47.96 8.36L47.96 19.93L43.81 19.93ZM61.30 22.41C64.61 22.41 66.72 20.06 66.72 16.71C66.72 13.12 64.28 12.28 62.52 12.28C60.95 12.28 59.52 12.95 58.93 13.32C59.19 9.56 60.89 7.82 63.32 7.82C64.21 7.82 64.82 8.06 65.30 8.29L66.06 6.03C65.30 5.66 64.08 5.38 62.87 5.38C58.23 5.38 55.90 9.40 55.90 14.84C55.90 19.32 57.49 22.41 61.30 22.41ZM61.49 20.11C59.65 20.11 58.93 18.58 58.93 15.54C59.80 15.06 60.82 14.82 61.65 14.82C63.10 14.82 63.74 15.56 63.74 17.23C63.74 18.89 63.13 20.11 61.49 20.11ZM68.46 21.50C69.52 22.06 71.33 22.39 72.68 22.39C77.24 22.39 79.07 18.80 79.07 13.62C79.07 8.49 77.59 5.38 73.52 5.38C70.37 5.38 68.24 7.62 68.24 11.06C68.24 14.52 70.89 15.69 72.70 15.69C74.35 15.69 75.50 14.95 76.09 14.58C76.09 17.97 75.05 19.91 72.59 19.91C70.98 19.91 69.91 19.48 69.24 19.19ZM73.61 12.97C72.02 12.97 71.22 12.04 71.22 10.58C71.22 9.03 71.78 7.69 73.57 7.69C75.42 7.69 76.00 9.84 76.00 12.25C75.31 12.71 74.74 12.97 73.61 12.97Z"/></g></svg>