<svg xmlns="http://www.w3.org/2000/svg" viewBox="0 0 83.503 28" data-ligne-id="JD177" class=""><g><g><path fill="rgb(226,0,26)" class="picto-outline" device-cmyk="0.00, 1.00, 1.00, 0.00" d="M3.6,0S0,5.4,0,14s3.6,14,3.6,14h31.4V0H3.6Z"/><rect y=".777" width="35" height="26.445" fill="none"/><path d="M7.646,19.394c.159.02.279.02.398.02,2.071,0,2.608-.915,2.608-2.667V6.238h2.607v11.067c0,2.966-1.97,4.458-4.1,4.458-.676,0-1.154-.099-1.513-.159v-2.21Z" fill="#fff"/><path d="M16.762,6.237h5.475c3.841,0,7.364,1.752,7.364,7.245,0,5.673-3.563,7.982-8.162,7.982h-4.677V6.237ZM21.261,19.275c3.125,0,5.673-1.313,5.673-5.474,0-3.523-1.713-5.354-4.917-5.354h-2.648v10.828h1.892Z" fill="#fff"/></g><path class="picto-outline" fill="rgb(23,41,123)" d="M39.333,0h44.1697v28h-44.1697V0.7z"/><path fill="#edd100" d="M43.81 22.07L54.27 22.07L54.27 19.77L50.92 19.77L50.92 5.33L48.47 5.33L43.07 8.29L44.12 10.32L47.99 8.13L47.99 19.77L43.81 19.77ZM57.99 22.07L61.05 22.07C61.05 18.72 61.11 17.65 62.34 15.83L63.83 13.62C66.19 10.12 66.49 9.14 66.49 7.17C66.49 6.47 66.43 5.84 66.36 5.33L55.73 5.33L55.73 7.81L63.48 7.81C63.48 8.00 63.45 8.20 63.43 8.40C63.30 9.18 62.89 9.95 61.68 11.74L60.44 13.60C58.40 16.62 57.99 18.11 57.99 22.07ZM70.56 22.07L73.62 22.07C73.62 18.72 73.69 17.65 74.91 15.83L76.40 13.62C78.76 10.12 79.07 9.14 79.07 7.17C79.07 6.47 79.00 5.84 78.94 5.33L68.31 5.33L68.31 7.81L76.05 7.81C76.05 8.00 76.03 8.20 76.01 8.40C75.88 9.18 75.46 9.95 74.26 11.74L73.01 13.60C70.98 16.62 70.56 18.11 70.56 22.07Z"/></g></svg>