<svg xmlns="http://www.w3.org/2000/svg" viewBox="0 0 83.503 28" data-ligne-id="JD171" class=""><g><g><path fill="rgb(226,0,26)" class="picto-outline" device-cmyk="0.00, 1.00, 1.00, 0.00" d="M3.6,0S0,5.4,0,14s3.6,14,3.6,14h31.4V0H3.6Z"/><rect y=".777" width="35" height="26.445" fill="none"/><path d="M7.646,19.394c.159.02.279.02.398.02,2.071,0,2.608-.915,2.608-2.667V6.238h2.607v11.067c0,2.966-1.97,4.458-4.1,4.458-.676,0-1.154-.099-1.513-.159v-2.21Z" fill="#fff"/><path d="M16.762,6.237h5.475c3.841,0,7.364,1.752,7.364,7.245,0,5.673-3.563,7.982-8.162,7.982h-4.677V6.237ZM21.261,19.275c3.125,0,5.673-1.313,5.673-5.474,0-3.523-1.713-5.354-4.917-5.354h-2.648v10.828h1.892Z" fill="#fff"/></g><path class="picto-outline" fill="rgb(23,41,123)" d="M39.333,0h44.1697v28h-44.1697V0.7z"/><path fill="#edd100" d="M43.81 21.99L54.16 21.99L54.16 19.71L50.85 19.71L50.85 5.41L48.42 5.41L43.07 8.34L44.11 10.35L47.94 8.19L47.94 19.71L43.81 19.71ZM57.84 21.99L60.88 21.99C60.88 18.67 60.94 17.61 62.15 15.81L63.63 13.62C65.97 10.16 66.27 9.18 66.27 7.23C66.27 6.54 66.20 5.91 66.14 5.41L55.61 5.41L55.61 7.86L63.28 7.86C63.28 8.06 63.26 8.25 63.24 8.45C63.11 9.23 62.69 9.99 61.50 11.76L60.27 13.60C58.25 16.59 57.84 18.06 57.84 21.99ZM68.72 21.99L79.07 21.99L79.07 19.71L75.76 19.71L75.76 5.41L73.33 5.41L67.98 8.34L69.02 10.35L72.85 8.19L72.85 19.71L68.72 19.71Z"/></g></svg>