<svg xmlns="http://www.w3.org/2000/svg" viewBox="0 0 83.503 28" data-ligne-id="JD176" class=""><g><g><path fill="rgb(226,0,26)" class="picto-outline" device-cmyk="0.00, 1.00, 1.00, 0.00" d="M3.6,0S0,5.4,0,14s3.6,14,3.6,14h31.4V0H3.6Z"/><rect y=".777" width="35" height="26.445" fill="none"/><path d="M7.646,19.394c.159.02.279.02.398.02,2.071,0,2.608-.915,2.608-2.667V6.238h2.607v11.067c0,2.966-1.97,4.458-4.1,4.458-.676,0-1.154-.099-1.513-.159v-2.21Z" fill="#fff"/><path d="M16.762,6.237h5.475c3.841,0,7.364,1.752,7.364,7.245,0,5.673-3.563,7.982-8.162,7.982h-4.677V6.237ZM21.261,19.275c3.125,0,5.673-1.313,5.673-5.474,0-3.523-1.713-5.354-4.917-5.354h-2.648v10.828h1.892Z" fill="#fff"/></g><path class="picto-outline" fill="rgb(23,41,123)" d="M39.333,0h44.1697v28h-44.1697V0.7z"/><path fill="#edd100" d="M43.81 22.18L54.16 22.18L54.16 19.91L50.85 19.91L50.85 5.61L48.42 5.61L43.07 8.53L44.11 10.55L47.94 8.38L47.94 19.91L43.81 19.91ZM57.84 22.18L60.88 22.18C60.88 18.87 60.94 17.80 62.15 16.01L63.63 13.82C65.97 10.35 66.27 9.38 66.27 7.43C66.27 6.74 66.20 6.11 66.14 5.61L55.61 5.61L55.61 8.06L63.28 8.06C63.28 8.25 63.26 8.45 63.24 8.64C63.11 9.42 62.69 10.18 61.50 11.96L60.27 13.80C58.25 16.79 57.84 18.26 57.84 22.18ZM73.68 22.38C76.97 22.38 79.07 20.04 79.07 16.70C79.07 13.13 76.64 12.28 74.89 12.28C73.33 12.28 71.90 12.95 71.32 13.32C71.58 9.57 73.27 7.84 75.69 7.84C76.58 7.84 77.19 8.08 77.66 8.32L78.42 6.06C77.66 5.70 76.45 5.41 75.24 5.41C70.62 5.41 68.31 9.42 68.31 14.84C68.31 19.30 69.89 22.38 73.68 22.38ZM73.87 20.08C72.03 20.08 71.32 18.56 71.32 15.53C72.18 15.05 73.20 14.82 74.02 14.82C75.47 14.82 76.10 15.55 76.10 17.22C76.10 18.87 75.50 20.08 73.87 20.08Z"/></g></svg>