<svg xmlns="http://www.w3.org/2000/svg" viewBox="0 0 83.503 28" data-ligne-id="JD181" class=""><g><g><path fill="rgb(226,0,26)" class="picto-outline" device-cmyk="0.00, 1.00, 1.00, 0.00" d="M3.6,0S0,5.4,0,14s3.6,14,3.6,14h31.4V0H3.6Z"/><rect y=".777" width="35" height="26.445" fill="none"/><path d="M7.646,19.394c.159.02.279.02.398.02,2.071,0,2.608-.915,2.608-2.667V6.238h2.607v11.067c0,2.966-1.97,4.458-4.1,4.458-.676,0-1.154-.099-1.513-.159v-2.21Z" fill="#fff"/><path d="M16.762,6.237h5.475c3.841,0,7.364,1.752,7.364,7.245,0,5.673-3.563,7.982-8.162,7.982h-4.677V6.237ZM21.261,19.275c3.125,0,5.673-1.313,5.673-5.474,0-3.523-1.713-5.354-4.917-5.354h-2.648v10.828h1.892Z" fill="#fff"/></g><path class="picto-outline" fill="rgb(23,41,123)" d="M39.333,0h44.1697v28h-44.1697V0.7z"/><path fill="#edd100" d="M43.81 22.17L54.16 22.17L54.16 19.89L50.85 19.89L50.85 5.60L48.42 5.60L43.07 8.52L44.11 10.54L47.94 8.37L47.94 19.89L43.81 19.89ZM55.81 17.77C55.81 20.13 57.32 22.34 60.88 22.34C64.62 22.34 66.53 19.89 66.53 17.27C66.53 15.28 65.45 13.89 63.41 12.99C64.64 12.40 65.86 11.25 65.86 9.35C65.86 6.96 64.19 5.40 61.31 5.40C58.54 5.40 56.28 7.12 56.28 10.00C56.28 11.27 56.72 12.53 58.49 13.61C57.08 14.39 55.81 15.61 55.81 17.77ZM61.18 12.21C59.68 11.58 59.42 10.73 59.42 9.87C59.42 8.26 60.29 7.70 61.27 7.70C62.44 7.70 62.87 8.48 62.87 9.58C62.87 10.75 62.37 11.62 61.18 12.21ZM58.90 17.69C58.90 16.45 59.42 15.32 60.44 14.72C62.33 15.39 63.45 15.97 63.45 17.71C63.45 19.14 62.67 20.18 61.20 20.18C59.92 20.18 58.90 19.40 58.90 17.69ZM68.72 22.17L79.07 22.17L79.07 19.89L75.76 19.89L75.76 5.60L73.33 5.60L67.98 8.52L69.02 10.54L72.85 8.37L72.85 19.89L68.72 19.89Z"/></g></svg>