<svg xmlns="http://www.w3.org/2000/svg" viewBox="0 0 83.503 28" data-ligne-id="JD195" class=""><g><g><path fill="rgb(226,0,26)" class="picto-outline" device-cmyk="0.00, 1.00, 1.00, 0.00" d="M3.6,0S0,5.4,0,14s3.6,14,3.6,14h31.4V0H3.6Z"/><rect y=".777" width="35" height="26.445" fill="none"/><path d="M7.646,19.394c.159.02.279.02.398.02,2.071,0,2.608-.915,2.608-2.667V6.238h2.607v11.067c0,2.966-1.97,4.458-4.1,4.458-.676,0-1.154-.099-1.513-.159v-2.21Z" fill="#fff"/><path d="M16.762,6.237h5.475c3.841,0,7.364,1.752,7.364,7.245,0,5.673-3.563,7.982-8.162,7.982h-4.677V6.237ZM21.261,19.275c3.125,0,5.673-1.313,5.673-5.474,0-3.523-1.713-5.354-4.917-5.354h-2.648v10.828h1.892Z" fill="#fff"/></g><path class="picto-outline" fill="rgb(23,41,123)" d="M39.333,0h44.1697v28h-44.1697V0.7z"/><path fill="#edd100" d="M43.81 22.23L54.23 22.23L54.23 19.94L50.89 19.94L50.89 5.56L48.45 5.56L43.07 8.50L44.12 10.53L47.97 8.35L47.97 19.94L43.81 19.94ZM55.97 21.51C57.04 22.08 58.85 22.41 60.20 22.41C64.78 22.41 66.61 18.81 66.61 13.62C66.61 8.48 65.12 5.36 61.05 5.36C57.89 5.36 55.75 7.61 55.75 11.05C55.75 14.52 58.41 15.69 60.22 15.69C61.88 15.69 63.03 14.95 63.62 14.58C63.62 17.98 62.57 19.92 60.11 19.92C58.50 19.92 57.43 19.49 56.76 19.20ZM61.14 12.97C59.55 12.97 58.74 12.03 58.74 10.57C58.74 9.03 59.31 7.67 61.09 7.67C62.94 7.67 63.53 9.83 63.53 12.25C62.84 12.71 62.27 12.97 61.14 12.97ZM68.44 21.34C69.42 21.80 71.14 22.43 73.14 22.43C77.17 22.43 79.07 19.90 79.07 16.65C79.07 13.43 77.22 11.75 74.04 11.75L71.90 11.75L72.05 7.96L78.72 7.96L78.72 5.56L69.22 5.56L68.94 14.17L73.06 14.17C75.06 14.17 76.11 14.89 76.11 16.83C76.11 18.83 75.00 19.99 72.79 19.99C71.62 19.99 70.07 19.66 69.02 19.29Z"/></g></svg>