<svg xmlns="http://www.w3.org/2000/svg" viewBox="0 0 83.503 28" data-ligne-id="JD21" class=""><g><g><path fill="rgb(226,0,26)" class="picto-outline" device-cmyk="0.00, 1.00, 1.00, 0.00" d="M3.6,0S0,5.4,0,14s3.6,14,3.6,14h31.4V0H3.6Z"/><rect y=".777" width="35" height="26.445" fill="none"/><path d="M7.646,19.394c.159.02.279.02.398.02,2.071,0,2.608-.915,2.608-2.667V6.238h2.607v11.067c0,2.966-1.97,4.458-4.1,4.458-.676,0-1.154-.099-1.513-.159v-2.21Z" fill="#fff"/><path d="M16.762,6.237h5.475c3.841,0,7.364,1.752,7.364,7.245,0,5.673-3.563,7.982-8.162,7.982h-4.677V6.237ZM21.261,19.275c3.125,0,5.673-1.313,5.673-5.474,0-3.523-1.713-5.354-4.917-5.354h-2.648v10.828h1.892Z" fill="#fff"/></g><path class="picto-outline" fill="rgb(23,41,123)" d="M39.333,0h44.1697v28h-44.1697V0.7z"/><path fill="#edd100" d="M47.26 23.70L59.89 23.70L59.89 20.81L51.08 20.81C51.14 19.98 51.29 19.31 52.87 18.12L55.73 15.97C58.27 14.06 59.58 12.54 59.58 9.31C59.58 5.69 56.85 3.70 52.92 3.70C51.16 3.70 48.89 4.32 47.08 5.41L48.22 7.86C49.17 7.34 51.01 6.62 52.66 6.62C54.42 6.62 55.97 7.37 55.97 9.77C55.97 11.50 54.99 12.56 53.28 13.83L50.90 15.61C48.34 17.55 47.26 19.15 47.26 21.17ZM62.71 23.70L75.06 23.70L75.06 20.99L71.11 20.99L71.11 3.93L68.22 3.93L61.83 7.42L63.07 9.82L67.65 7.24L67.65 20.99L62.71 20.99Z"/></g></svg>