<svg xmlns="http://www.w3.org/2000/svg" viewBox="0 0 83.503 28" data-ligne-id="JD241" class=""><g><g><path fill="rgb(226,0,26)" class="picto-outline" device-cmyk="0.00, 1.00, 1.00, 0.00" d="M3.6,0S0,5.4,0,14s3.6,14,3.6,14h31.4V0H3.6Z"/><rect y=".777" width="35" height="26.445" fill="none"/><path d="M7.646,19.394c.159.02.279.02.398.02,2.071,0,2.608-.915,2.608-2.667V6.238h2.607v11.067c0,2.966-1.97,4.458-4.1,4.458-.676,0-1.154-.099-1.513-.159v-2.21Z" fill="#fff"/><path d="M16.762,6.237h5.475c3.841,0,7.364,1.752,7.364,7.245,0,5.673-3.563,7.982-8.162,7.982h-4.677V6.237ZM21.261,19.275c3.125,0,5.673-1.313,5.673-5.474,0-3.523-1.713-5.354-4.917-5.354h-2.648v10.828h1.892Z" fill="#fff"/></g><path class="picto-outline" fill="rgb(23,41,123)" d="M39.333,0h44.1697v28h-44.1697V0.7z"/><path fill="#edd100" d="M43.22 22.10L53.84 22.10L53.84 19.67L46.44 19.67C46.48 18.98 46.61 18.41 47.93 17.41L50.34 15.61C52.47 14.00 53.58 12.72 53.58 10.01C53.58 6.97 51.28 5.30 47.98 5.30C46.50 5.30 44.59 5.82 43.07 6.73L44.03 8.79C44.83 8.36 46.37 7.75 47.76 7.75C49.24 7.75 50.54 8.38 50.54 10.40C50.54 11.85 49.71 12.74 48.28 13.81L46.28 15.31C44.13 16.94 43.22 18.28 43.22 19.98ZM55.21 19.15L62.11 19.15L62.11 22.10L64.85 22.10L64.85 19.15L66.95 19.15L66.95 16.74L64.85 16.74L64.85 5.49L60.96 5.49L55.21 16.63ZM57.70 16.74L60.98 10.33C61.57 9.21 61.96 8.34 62.11 7.75L62.11 16.74ZM68.69 22.10L79.07 22.10L79.07 19.82L75.75 19.82L75.75 5.49L73.32 5.49L67.95 8.42L69.00 10.44L72.84 8.27L72.84 19.82L68.69 19.82Z"/></g></svg>