<svg xmlns="http://www.w3.org/2000/svg" viewBox="0 0 83.503 28" data-ligne-id="JD244" class=""><g><g><path fill="rgb(226,0,26)" class="picto-outline" device-cmyk="0.00, 1.00, 1.00, 0.00" d="M3.6,0S0,5.4,0,14s3.6,14,3.6,14h31.4V0H3.6Z"/><rect y=".777" width="35" height="26.445" fill="none"/><path d="M7.646,19.394c.159.02.279.02.398.02,2.071,0,2.608-.915,2.608-2.667V6.238h2.607v11.067c0,2.966-1.97,4.458-4.1,4.458-.676,0-1.154-.099-1.513-.159v-2.21Z" fill="#fff"/><path d="M16.762,6.237h5.475c3.841,0,7.364,1.752,7.364,7.245,0,5.673-3.563,7.982-8.162,7.982h-4.677V6.237ZM21.261,19.275c3.125,0,5.673-1.313,5.673-5.474,0-3.523-1.713-5.354-4.917-5.354h-2.648v10.828h1.892Z" fill="#fff"/></g><path class="picto-outline" fill="rgb(23,41,123)" d="M39.333,0h44.1697v28h-44.1697V0.7z"/><path fill="#edd100" d="M43.22 22.02L53.73 22.02L53.73 19.61L46.40 19.61C46.44 18.92 46.57 18.36 47.88 17.38L50.27 15.59C52.38 14.00 53.47 12.73 53.47 10.05C53.47 7.04 51.19 5.38 47.93 5.38C46.47 5.38 44.57 5.90 43.07 6.80L44.02 8.84C44.81 8.41 46.34 7.81 47.71 7.81C49.17 7.81 50.46 8.43 50.46 10.43C50.46 11.87 49.65 12.75 48.23 13.81L46.25 15.29C44.12 16.90 43.22 18.23 43.22 19.91ZM55.08 19.09L61.92 19.09L61.92 22.02L64.63 22.02L64.63 19.09L66.71 19.09L66.71 16.71L64.63 16.71L64.63 5.58L60.78 5.58L55.08 16.60ZM57.56 16.71L60.80 10.37C61.38 9.25 61.77 8.39 61.92 7.81L61.92 16.71ZM67.44 19.09L74.28 19.09L74.28 22.02L76.99 22.02L76.99 19.09L79.07 19.09L79.07 16.71L76.99 16.71L76.99 5.58L73.14 5.58L67.44 16.60ZM69.91 16.71L73.16 10.37C73.74 9.25 74.13 8.39 74.28 7.81L74.28 16.71Z"/></g></svg>