<svg xmlns="http://www.w3.org/2000/svg" viewBox="0 0 83.503 28" data-ligne-id="JD25" class=""><g><g><path fill="rgb(226,0,26)" class="picto-outline" device-cmyk="0.00, 1.00, 1.00, 0.00" d="M3.6,0S0,5.4,0,14s3.6,14,3.6,14h31.4V0H3.6Z"/><rect y=".777" width="35" height="26.445" fill="none"/><path d="M7.646,19.394c.159.02.279.02.398.02,2.071,0,2.608-.915,2.608-2.667V6.238h2.607v11.067c0,2.966-1.97,4.458-4.1,4.458-.676,0-1.154-.099-1.513-.159v-2.21Z" fill="#fff"/><path d="M16.762,6.237h5.475c3.841,0,7.364,1.752,7.364,7.245,0,5.673-3.563,7.982-8.162,7.982h-4.677V6.237ZM21.261,19.275c3.125,0,5.673-1.313,5.673-5.474,0-3.523-1.713-5.354-4.917-5.354h-2.648v10.828h1.892Z" fill="#fff"/></g><path class="picto-outline" fill="rgb(23,41,123)" d="M39.333,0h44.1697v28h-44.1697V0.7z"/><path fill="#edd100" d="M47.55 23.70L60.04 23.70L60.04 20.84L51.33 20.84C51.38 20.02 51.53 19.36 53.09 18.18L55.92 16.06C58.43 14.17 59.73 12.67 59.73 9.47C59.73 5.90 57.02 3.93 53.14 3.93C51.40 3.93 49.15 4.54 47.37 5.62L48.49 8.04C49.44 7.53 51.25 6.82 52.88 6.82C54.62 6.82 56.15 7.56 56.15 9.93C56.15 11.64 55.18 12.69 53.50 13.94L51.15 15.71C48.62 17.62 47.55 19.20 47.55 21.20ZM62.31 22.65C63.46 23.19 65.48 23.93 67.83 23.93C72.55 23.93 74.77 20.97 74.77 17.16C74.77 13.38 72.60 11.41 68.87 11.41L66.37 11.41L66.55 6.97L74.37 6.97L74.37 4.16L63.23 4.16L62.90 14.25L67.72 14.25C70.07 14.25 71.30 15.09 71.30 17.37C71.30 19.72 70.00 21.07 67.42 21.07C66.04 21.07 64.22 20.69 63.00 20.25Z"/></g></svg>