<svg xmlns="http://www.w3.org/2000/svg" viewBox="0 0 83.503 28" data-ligne-id="JD27" class=""><g><g><path fill="rgb(226,0,26)" class="picto-outline" device-cmyk="0.00, 1.00, 1.00, 0.00" d="M3.6,0S0,5.4,0,14s3.6,14,3.6,14h31.4V0H3.6Z"/><rect y=".777" width="35" height="26.445" fill="none"/><path d="M7.646,19.394c.159.02.279.02.398.02,2.071,0,2.608-.915,2.608-2.667V6.238h2.607v11.067c0,2.966-1.97,4.458-4.1,4.458-.676,0-1.154-.099-1.513-.159v-2.21Z" fill="#fff"/><path d="M16.762,6.237h5.475c3.841,0,7.364,1.752,7.364,7.245,0,5.673-3.563,7.982-8.162,7.982h-4.677V6.237ZM21.261,19.275c3.125,0,5.673-1.313,5.673-5.474,0-3.523-1.713-5.354-4.917-5.354h-2.648v10.828h1.892Z" fill="#fff"/></g><path class="picto-outline" fill="rgb(23,41,123)" d="M39.333,0h44.1697v28h-44.1697V0.7z"/><path fill="#edd100" d="M47.47 23.70L60.10 23.70L60.10 20.81L51.29 20.81C51.34 19.98 51.50 19.31 53.07 18.12L55.94 15.97C58.47 14.06 59.79 12.54 59.79 9.31C59.79 5.69 57.05 3.70 53.12 3.70C51.37 3.70 49.09 4.32 47.28 5.41L48.42 7.86C49.38 7.34 51.21 6.62 52.87 6.62C54.62 6.62 56.17 7.37 56.17 9.77C56.17 11.50 55.19 12.56 53.49 13.83L51.11 15.61C48.55 17.55 47.47 19.15 47.47 21.17ZM64.80 23.70L68.42 23.70C68.42 19.75 68.50 18.48 69.95 16.34L71.70 13.73C74.49 9.59 74.86 8.43 74.86 6.10C74.86 5.28 74.78 4.53 74.70 3.93L62.14 3.93L62.14 6.85L71.29 6.85C71.29 7.09 71.26 7.32 71.24 7.55C71.08 8.48 70.59 9.38 69.17 11.50L67.70 13.70C65.30 17.27 64.80 19.02 64.80 23.70Z"/></g></svg>