<svg xmlns="http://www.w3.org/2000/svg" viewBox="0 0 83.503 28" data-ligne-id="JD3" class=""><g><g><path fill="rgb(226,0,26)" class="picto-outline" device-cmyk="0.00, 1.00, 1.00, 0.00" d="M3.6,0S0,5.4,0,14s3.6,14,3.6,14h31.4V0H3.6Z"/><rect y=".777" width="35" height="26.445" fill="none"/><path d="M7.646,19.394c.159.02.279.02.398.02,2.071,0,2.608-.915,2.608-2.667V6.238h2.607v11.067c0,2.966-1.97,4.458-4.1,4.458-.676,0-1.154-.099-1.513-.159v-2.21Z" fill="#fff"/><path d="M16.762,6.237h5.475c3.841,0,7.364,1.752,7.364,7.245,0,5.673-3.563,7.982-8.162,7.982h-4.677V6.237ZM21.261,19.275c3.125,0,5.673-1.313,5.673-5.474,0-3.523-1.713-5.354-4.917-5.354h-2.648v10.828h1.892Z" fill="#fff"/></g><path class="picto-outline" fill="rgb(23,41,123)" d="M39.333,0h44.1697v28h-44.1697V0.7z"/><path fill="#edd100" d="M54.84 22.40C55.81 22.96 57.81 23.90 60.44 23.90C64.97 23.90 67.37 21.12 67.37 17.74C67.37 15.36 66.20 13.70 64.25 13.04C65.84 12.29 67.14 11.09 67.14 8.74C67.14 5.93 65.30 3.90 61.42 3.90C59.06 3.90 56.58 4.65 54.77 5.67L55.94 8.30C57.14 7.56 58.86 6.87 60.73 6.87C62.77 6.87 63.62 7.69 63.62 9.28C63.62 11.42 61.88 12.22 59.86 12.22L58.12 12.22L58.12 15.03L60.34 15.03C62.31 15.03 63.92 15.64 63.92 17.72C63.92 19.51 62.75 20.86 60.21 20.86C58.30 20.86 56.56 20.12 55.81 19.74Z"/></g></svg>