<svg xmlns="http://www.w3.org/2000/svg" viewBox="0 0 83.503 28" data-ligne-id="JD31" class=""><g><g><path fill="rgb(226,0,26)" class="picto-outline" device-cmyk="0.00, 1.00, 1.00, 0.00" d="M3.6,0S0,5.4,0,14s3.6,14,3.6,14h31.4V0H3.6Z"/><rect y=".777" width="35" height="26.445" fill="none"/><path d="M7.646,19.394c.159.02.279.02.398.02,2.071,0,2.608-.915,2.608-2.667V6.238h2.607v11.067c0,2.966-1.97,4.458-4.1,4.458-.676,0-1.154-.099-1.513-.159v-2.21Z" fill="#fff"/><path d="M16.762,6.237h5.475c3.841,0,7.364,1.752,7.364,7.245,0,5.673-3.563,7.982-8.162,7.982h-4.677V6.237ZM21.261,19.275c3.125,0,5.673-1.313,5.673-5.474,0-3.523-1.713-5.354-4.917-5.354h-2.648v10.828h1.892Z" fill="#fff"/></g><path class="picto-outline" fill="rgb(23,41,123)" d="M39.333,0h44.1697v28h-44.1697V0.7z"/><path fill="#edd100" d="M47.11 22.40C48.08 22.96 50.07 23.90 52.71 23.90C57.23 23.90 59.64 21.12 59.64 17.74C59.64 15.36 58.46 13.70 56.52 13.04C58.10 12.29 59.41 11.09 59.41 8.74C59.41 5.93 57.57 3.90 53.68 3.90C51.33 3.90 48.85 4.65 47.03 5.67L48.21 8.30C49.41 7.56 51.12 6.87 52.99 6.87C55.03 6.87 55.88 7.69 55.88 9.28C55.88 11.42 54.14 12.22 52.12 12.22L50.38 12.22L50.38 15.03L52.60 15.03C54.57 15.03 56.19 15.64 56.19 17.72C56.19 19.51 55.01 20.86 52.48 20.86C50.56 20.86 48.82 20.12 48.08 19.74ZM62.89 23.70L75.11 23.70L75.11 21.01L71.20 21.01L71.20 4.13L68.33 4.13L62.02 7.59L63.24 9.97L67.77 7.41L67.77 21.01L62.89 21.01Z"/></g></svg>