<svg xmlns="http://www.w3.org/2000/svg" viewBox="0 0 83.503 28" data-ligne-id="JD314" class=""><g><g><path fill="rgb(226,0,26)" class="picto-outline" device-cmyk="0.00, 1.00, 1.00, 0.00" d="M3.6,0S0,5.4,0,14s3.6,14,3.6,14h31.4V0H3.6Z"/><rect y=".777" width="35" height="26.445" fill="none"/><path d="M7.646,19.394c.159.02.279.02.398.02,2.071,0,2.608-.915,2.608-2.667V6.238h2.607v11.067c0,2.966-1.97,4.458-4.1,4.458-.676,0-1.154-.099-1.513-.159v-2.21Z" fill="#fff"/><path d="M16.762,6.237h5.475c3.841,0,7.364,1.752,7.364,7.245,0,5.673-3.563,7.982-8.162,7.982h-4.677V6.237ZM21.261,19.275c3.125,0,5.673-1.313,5.673-5.474,0-3.523-1.713-5.354-4.917-5.354h-2.648v10.828h1.892Z" fill="#fff"/></g><path class="picto-outline" fill="rgb(23,41,123)" d="M39.333,0h44.1697v28h-44.1697V0.7z"/><path fill="#edd100" d="M43.13 20.94C43.94 21.41 45.61 22.20 47.80 22.20C51.57 22.20 53.57 19.88 53.57 17.07C53.57 15.08 52.59 13.70 50.97 13.15C52.29 12.53 53.38 11.53 53.38 9.57C53.38 7.22 51.85 5.54 48.61 5.54C46.65 5.54 44.58 6.16 43.07 7.01L44.05 9.21C45.05 8.59 46.48 8.01 48.03 8.01C49.74 8.01 50.44 8.69 50.44 10.01C50.44 11.80 48.99 12.46 47.31 12.46L45.86 12.46L45.86 14.81L47.71 14.81C49.35 14.81 50.70 15.32 50.70 17.04C50.70 18.54 49.72 19.66 47.61 19.66C46.01 19.66 44.56 19.05 43.94 18.73ZM56.28 22.03L66.46 22.03L66.46 19.79L63.20 19.79L63.20 5.73L60.81 5.73L55.55 8.61L56.58 10.59L60.35 8.46L60.35 19.79L56.28 19.79ZM67.55 19.13L74.32 19.13L74.32 22.03L77.00 22.03L77.00 19.13L79.07 19.13L79.07 16.77L77.00 16.77L77.00 5.73L73.19 5.73L67.55 16.66ZM70.00 16.77L73.21 10.48C73.79 9.38 74.17 8.52 74.32 7.95L74.32 16.77Z"/></g></svg>