<svg xmlns="http://www.w3.org/2000/svg" viewBox="0 0 83.503 28" data-ligne-id="JD33" class=""><g><g><path fill="rgb(226,0,26)" class="picto-outline" device-cmyk="0.00, 1.00, 1.00, 0.00" d="M3.6,0S0,5.4,0,14s3.6,14,3.6,14h31.4V0H3.6Z"/><rect y=".777" width="35" height="26.445" fill="none"/><path d="M7.646,19.394c.159.02.279.02.398.02,2.071,0,2.608-.915,2.608-2.667V6.238h2.607v11.067c0,2.966-1.97,4.458-4.1,4.458-.676,0-1.154-.099-1.513-.159v-2.21Z" fill="#fff"/><path d="M16.762,6.237h5.475c3.841,0,7.364,1.752,7.364,7.245,0,5.673-3.563,7.982-8.162,7.982h-4.677V6.237ZM21.261,19.275c3.125,0,5.673-1.313,5.673-5.474,0-3.523-1.713-5.354-4.917-5.354h-2.648v10.828h1.892Z" fill="#fff"/></g><path class="picto-outline" fill="rgb(23,41,123)" d="M39.333,0h44.1697v28h-44.1697V0.7z"/><path fill="#edd100" d="M47.49 22.40C48.46 22.96 50.46 23.90 53.09 23.90C57.62 23.90 60.02 21.12 60.02 17.74C60.02 15.36 58.85 13.70 56.90 13.04C58.49 12.29 59.79 11.09 59.79 8.74C59.79 5.93 57.95 3.90 54.06 3.90C51.71 3.90 49.23 4.65 47.41 5.67L48.59 8.30C49.79 7.56 51.51 6.87 53.37 6.87C55.42 6.87 56.26 7.69 56.26 9.28C56.26 11.42 54.52 12.22 52.50 12.22L50.76 12.22L50.76 15.03L52.99 15.03C54.96 15.03 56.57 15.64 56.57 17.72C56.57 19.51 55.39 20.86 52.86 20.86C50.94 20.86 49.20 20.12 48.46 19.74ZM62.20 22.40C63.17 22.96 65.16 23.90 67.80 23.90C72.32 23.90 74.73 21.12 74.73 17.74C74.73 15.36 73.55 13.70 71.61 13.04C73.19 12.29 74.50 11.09 74.50 8.74C74.50 5.93 72.66 3.90 68.77 3.90C66.42 3.90 63.93 4.65 62.12 5.67L63.30 8.30C64.50 7.56 66.21 6.87 68.08 6.87C70.12 6.87 70.97 7.69 70.97 9.28C70.97 11.42 69.23 12.22 67.21 12.22L65.47 12.22L65.47 15.03L67.69 15.03C69.66 15.03 71.28 15.64 71.28 17.72C71.28 19.51 70.10 20.86 67.57 20.86C65.65 20.86 63.91 20.12 63.17 19.74Z"/></g></svg>