<svg xmlns="http://www.w3.org/2000/svg" viewBox="0 0 83.503 28" data-ligne-id="JD359" class=""><g><g><path fill="rgb(226,0,26)" class="picto-outline" device-cmyk="0.00, 1.00, 1.00, 0.00" d="M3.6,0S0,5.4,0,14s3.6,14,3.6,14h31.4V0H3.6Z"/><rect y=".777" width="35" height="26.445" fill="none"/><path d="M7.646,19.394c.159.02.279.02.398.02,2.071,0,2.608-.915,2.608-2.667V6.238h2.607v11.067c0,2.966-1.97,4.458-4.1,4.458-.676,0-1.154-.099-1.513-.159v-2.21Z" fill="#fff"/><path d="M16.762,6.237h5.475c3.841,0,7.364,1.752,7.364,7.245,0,5.673-3.563,7.982-8.162,7.982h-4.677V6.237ZM21.261,19.275c3.125,0,5.673-1.313,5.673-5.474,0-3.523-1.713-5.354-4.917-5.354h-2.648v10.828h1.892Z" fill="#fff"/></g><path class="picto-outline" fill="rgb(23,41,123)" d="M39.333,0h44.1697v28h-44.1697V0.7z"/><path fill="#edd100" d="M43.14 21.06C43.96 21.53 45.64 22.33 47.87 22.33C51.69 22.33 53.72 19.98 53.72 17.12C53.72 15.12 52.73 13.71 51.09 13.15C52.43 12.52 53.53 11.51 53.53 9.52C53.53 7.14 51.97 5.43 48.69 5.43C46.70 5.43 44.60 6.06 43.07 6.93L44.06 9.15C45.08 8.52 46.53 7.94 48.11 7.94C49.83 7.94 50.55 8.63 50.55 9.97C50.55 11.79 49.08 12.46 47.37 12.46L45.90 12.46L45.90 14.83L47.78 14.83C49.44 14.83 50.81 15.35 50.81 17.10C50.81 18.62 49.81 19.76 47.67 19.76C46.05 19.76 44.58 19.13 43.96 18.81ZM56.04 21.27C57.01 21.73 58.72 22.35 60.70 22.35C64.70 22.35 66.58 19.85 66.58 16.63C66.58 13.43 64.74 11.77 61.59 11.77L59.47 11.77L59.62 8.01L66.23 8.01L66.23 5.63L56.81 5.63L56.53 14.16L60.62 14.16C62.60 14.16 63.64 14.88 63.64 16.80C63.64 18.79 62.54 19.93 60.36 19.93C59.19 19.93 57.66 19.61 56.62 19.24ZM68.53 21.45C69.58 22.01 71.38 22.33 72.72 22.33C77.26 22.33 79.07 18.77 79.07 13.62C79.07 8.52 77.60 5.43 73.56 5.43C70.43 5.43 68.31 7.66 68.31 11.07C68.31 14.51 70.95 15.68 72.74 15.68C74.38 15.68 75.53 14.94 76.11 14.58C76.11 17.95 75.07 19.87 72.63 19.87C71.03 19.87 69.97 19.44 69.30 19.16ZM73.65 12.98C72.07 12.98 71.27 12.05 71.27 10.60C71.27 9.06 71.83 7.73 73.60 7.73C75.44 7.73 76.02 9.86 76.02 12.26C75.33 12.72 74.77 12.98 73.65 12.98Z"/></g></svg>