<svg xmlns="http://www.w3.org/2000/svg" viewBox="0 0 83.503 28" data-ligne-id="JD404" class=""><g><g><path fill="rgb(226,0,26)" class="picto-outline" device-cmyk="0.00, 1.00, 1.00, 0.00" d="M3.6,0S0,5.4,0,14s3.6,14,3.6,14h31.4V0H3.6Z"/><rect y=".777" width="35" height="26.445" fill="none"/><path d="M7.646,19.394c.159.02.279.02.398.02,2.071,0,2.608-.915,2.608-2.667V6.238h2.607v11.067c0,2.966-1.97,4.458-4.1,4.458-.676,0-1.154-.099-1.513-.159v-2.21Z" fill="#fff"/><path d="M16.762,6.237h5.475c3.841,0,7.364,1.752,7.364,7.245,0,5.673-3.563,7.982-8.162,7.982h-4.677V6.237ZM21.261,19.275c3.125,0,5.673-1.313,5.673-5.474,0-3.523-1.713-5.354-4.917-5.354h-2.648v10.828h1.892Z" fill="#fff"/></g><path class="picto-outline" fill="rgb(23,41,123)" d="M39.333,0h44.1697v28h-44.1697V0.7z"/><path fill="#edd100" d="M43.07 19.14L49.84 19.14L49.84 22.03L52.52 22.03L52.52 19.14L54.59 19.14L54.59 16.78L52.52 16.78L52.52 5.75L48.71 5.75L43.07 16.67ZM45.52 16.78L48.73 10.50C49.31 9.39 49.69 8.54 49.84 7.96L49.84 16.78ZM61.10 22.23C66.02 22.23 66.83 18.31 66.83 13.92C66.83 9.75 65.70 5.56 61.10 5.56C56.53 5.56 55.40 9.75 55.40 13.92C55.40 18.31 56.21 22.23 61.10 22.23ZM61.10 19.74C59.29 19.74 58.38 18.18 58.38 14.16C58.38 10.73 58.91 8.15 61.10 8.15C63.32 8.15 63.85 10.73 63.85 14.16C63.85 18.18 62.93 19.74 61.10 19.74ZM67.55 19.14L74.32 19.14L74.32 22.03L77.01 22.03L77.01 19.14L79.07 19.14L79.07 16.78L77.01 16.78L77.01 5.75L73.19 5.75L67.55 16.67ZM70.00 16.78L73.22 10.50C73.79 9.39 74.17 8.54 74.32 7.96L74.32 16.78Z"/></g></svg>