<svg xmlns="http://www.w3.org/2000/svg" viewBox="0 0 83.503 28" data-ligne-id="JD407" class=""><g><g><path fill="rgb(226,0,26)" class="picto-outline" device-cmyk="0.00, 1.00, 1.00, 0.00" d="M3.6,0S0,5.4,0,14s3.6,14,3.6,14h31.4V0H3.6Z"/><rect y=".777" width="35" height="26.445" fill="none"/><path d="M7.646,19.394c.159.02.279.02.398.02,2.071,0,2.608-.915,2.608-2.667V6.238h2.607v11.067c0,2.966-1.97,4.458-4.1,4.458-.676,0-1.154-.099-1.513-.159v-2.21Z" fill="#fff"/><path d="M16.762,6.237h5.475c3.841,0,7.364,1.752,7.364,7.245,0,5.673-3.563,7.982-8.162,7.982h-4.677V6.237ZM21.261,19.275c3.125,0,5.673-1.313,5.673-5.474,0-3.523-1.713-5.354-4.917-5.354h-2.648v10.828h1.892Z" fill="#fff"/></g><path class="picto-outline" fill="rgb(23,41,123)" d="M39.333,0h44.1697v28h-44.1697V0.7z"/><path fill="#edd100" d="M43.07 19.25L49.98 19.25L49.98 22.20L52.71 22.20L52.71 19.25L54.82 19.25L54.82 16.84L52.71 16.84L52.71 5.59L48.82 5.59L43.07 16.73ZM45.57 16.84L48.85 10.43C49.43 9.30 49.82 8.43 49.98 7.85L49.98 16.84ZM61.46 22.40C66.48 22.40 67.30 18.40 67.30 13.93C67.30 9.67 66.15 5.39 61.46 5.39C56.79 5.39 55.64 9.67 55.64 13.93C55.64 18.40 56.47 22.40 61.46 22.40ZM61.46 19.86C59.62 19.86 58.68 18.27 58.68 14.17C58.68 10.67 59.22 8.04 61.46 8.04C63.72 8.04 64.26 10.67 64.26 14.17C64.26 18.27 63.33 19.86 61.46 19.86ZM70.62 22.20L73.66 22.20C73.66 18.88 73.73 17.81 74.94 16.01L76.42 13.82C78.77 10.35 79.07 9.37 79.07 7.41C79.07 6.72 79.01 6.09 78.94 5.59L68.39 5.59L68.39 8.04L76.07 8.04C76.07 8.24 76.05 8.43 76.03 8.63C75.90 9.41 75.49 10.17 74.29 11.95L73.06 13.80C71.04 16.79 70.62 18.27 70.62 22.20Z"/></g></svg>