<svg xmlns="http://www.w3.org/2000/svg" viewBox="0 0 83.503 28" data-ligne-id="JD41" class=""><g><g><path fill="rgb(226,0,26)" class="picto-outline" device-cmyk="0.00, 1.00, 1.00, 0.00" d="M3.6,0S0,5.4,0,14s3.6,14,3.6,14h31.4V0H3.6Z"/><rect y=".777" width="35" height="26.445" fill="none"/><path d="M7.646,19.394c.159.02.279.02.398.02,2.071,0,2.608-.915,2.608-2.667V6.238h2.607v11.067c0,2.966-1.97,4.458-4.1,4.458-.676,0-1.154-.099-1.513-.159v-2.21Z" fill="#fff"/><path d="M16.762,6.237h5.475c3.841,0,7.364,1.752,7.364,7.245,0,5.673-3.563,7.982-8.162,7.982h-4.677V6.237ZM21.261,19.275c3.125,0,5.673-1.313,5.673-5.474,0-3.523-1.713-5.354-4.917-5.354h-2.648v10.828h1.892Z" fill="#fff"/></g><path class="picto-outline" fill="rgb(23,41,123)" d="M39.333,0h44.1697v28h-44.1697V0.7z"/><path fill="#edd100" d="M46.70 20.14L55.02 20.14L55.02 23.70L58.31 23.70L58.31 20.14L60.85 20.14L60.85 17.24L58.31 17.24L58.31 3.70L53.63 3.70L46.70 17.11ZM49.71 17.24L53.66 9.53C54.36 8.17 54.84 7.12 55.02 6.42L55.02 17.24ZM62.94 23.70L75.44 23.70L75.44 20.95L71.44 20.95L71.44 3.70L68.51 3.70L62.05 7.23L63.31 9.66L67.93 7.05L67.93 20.95L62.94 20.95Z"/></g></svg>