<svg xmlns="http://www.w3.org/2000/svg" viewBox="0 0 83.503 28" data-ligne-id="JD411" class=""><g><g><path fill="rgb(226,0,26)" class="picto-outline" device-cmyk="0.00, 1.00, 1.00, 0.00" d="M3.6,0S0,5.4,0,14s3.6,14,3.6,14h31.4V0H3.6Z"/><rect y=".777" width="35" height="26.445" fill="none"/><path d="M7.646,19.394c.159.02.279.02.398.02,2.071,0,2.608-.915,2.608-2.667V6.238h2.607v11.067c0,2.966-1.97,4.458-4.1,4.458-.676,0-1.154-.099-1.513-.159v-2.21Z" fill="#fff"/><path d="M16.762,6.237h5.475c3.841,0,7.364,1.752,7.364,7.245,0,5.673-3.563,7.982-8.162,7.982h-4.677V6.237ZM21.261,19.275c3.125,0,5.673-1.313,5.673-5.474,0-3.523-1.713-5.354-4.917-5.354h-2.648v10.828h1.892Z" fill="#fff"/></g><path class="picto-outline" fill="rgb(23,41,123)" d="M39.333,0h44.1697v28h-44.1697V0.7z"/><path fill="#edd100" d="M43.07 19.00L49.91 19.00L49.91 21.93L52.62 21.93L52.62 19.00L54.70 19.00L54.70 16.61L52.62 16.61L52.62 5.47L48.77 5.47L43.07 16.51ZM45.54 16.61L48.79 10.27C49.37 9.15 49.76 8.29 49.91 7.71L49.91 16.61ZM56.43 21.93L66.70 21.93L66.70 19.67L63.41 19.67L63.41 5.47L61.01 5.47L55.69 8.38L56.73 10.38L60.53 8.23L60.53 19.67L56.43 19.67ZM68.79 21.93L79.07 21.93L79.07 19.67L75.78 19.67L75.78 5.47L73.37 5.47L68.06 8.38L69.09 10.38L72.90 8.23L72.90 19.67L68.79 19.67Z"/></g></svg>