<svg xmlns="http://www.w3.org/2000/svg" viewBox="0 0 83.503 28" data-ligne-id="JD425" class=""><g><g><path fill="rgb(226,0,26)" class="picto-outline" device-cmyk="0.00, 1.00, 1.00, 0.00" d="M3.6,0S0,5.4,0,14s3.6,14,3.6,14h31.4V0H3.6Z"/><rect y=".777" width="35" height="26.445" fill="none"/><path d="M7.646,19.394c.159.02.279.02.398.02,2.071,0,2.608-.915,2.608-2.667V6.238h2.607v11.067c0,2.966-1.97,4.458-4.1,4.458-.676,0-1.154-.099-1.513-.159v-2.21Z" fill="#fff"/><path d="M16.762,6.237h5.475c3.841,0,7.364,1.752,7.364,7.245,0,5.673-3.563,7.982-8.162,7.982h-4.677V6.237ZM21.261,19.275c3.125,0,5.673-1.313,5.673-5.474,0-3.523-1.713-5.354-4.917-5.354h-2.648v10.828h1.892Z" fill="#fff"/></g><path class="picto-outline" fill="rgb(23,41,123)" d="M39.333,0h44.1697v28h-44.1697V0.7z"/><path fill="#edd100" d="M43.07 19.23L49.95 19.23L49.95 22.17L52.68 22.17L52.68 19.23L54.77 19.23L54.77 16.83L52.68 16.83L52.68 5.62L48.80 5.62L43.07 16.72ZM45.56 16.83L48.83 10.44C49.41 9.32 49.80 8.45 49.95 7.87L49.95 16.83ZM56.01 22.17L66.59 22.17L66.59 19.75L59.21 19.75C59.25 19.05 59.38 18.49 60.70 17.50L63.10 15.70C65.22 14.10 66.33 12.82 66.33 10.12C66.33 7.09 64.03 5.42 60.75 5.42C59.27 5.42 57.37 5.94 55.86 6.85L56.81 8.91C57.61 8.48 59.14 7.87 60.53 7.87C62.00 7.87 63.30 8.50 63.30 10.51C63.30 11.96 62.48 12.85 61.05 13.91L59.06 15.40C56.92 17.02 56.01 18.36 56.01 20.05ZM68.51 21.28C69.49 21.74 71.20 22.36 73.19 22.36C77.19 22.36 79.07 19.86 79.07 16.63C79.07 13.43 77.23 11.76 74.07 11.76L71.95 11.76L72.10 8.00L78.72 8.00L78.72 5.62L69.29 5.62L69.01 14.17L73.10 14.17C75.09 14.17 76.13 14.88 76.13 16.80C76.13 18.79 75.02 19.94 72.84 19.94C71.67 19.94 70.14 19.62 69.10 19.25Z"/></g></svg>