<svg xmlns="http://www.w3.org/2000/svg" viewBox="0 0 83.503 28" data-ligne-id="JD453" class=""><g><g><path fill="rgb(226,0,26)" class="picto-outline" device-cmyk="0.00, 1.00, 1.00, 0.00" d="M3.6,0S0,5.4,0,14s3.6,14,3.6,14h31.4V0H3.6Z"/><rect y=".777" width="35" height="26.445" fill="none"/><path d="M7.646,19.394c.159.02.279.02.398.02,2.071,0,2.608-.915,2.608-2.667V6.238h2.607v11.067c0,2.966-1.97,4.458-4.1,4.458-.676,0-1.154-.099-1.513-.159v-2.21Z" fill="#fff"/><path d="M16.762,6.237h5.475c3.841,0,7.364,1.752,7.364,7.245,0,5.673-3.563,7.982-8.162,7.982h-4.677V6.237ZM21.261,19.275c3.125,0,5.673-1.313,5.673-5.474,0-3.523-1.713-5.354-4.917-5.354h-2.648v10.828h1.892Z" fill="#fff"/></g><path class="picto-outline" fill="rgb(23,41,123)" d="M39.333,0h44.1697v28h-44.1697V0.7z"/><path fill="#edd100" d="M43.07 19.29L50.03 19.29L50.03 22.27L52.79 22.27L52.79 19.29L54.92 19.29L54.92 16.86L52.79 16.86L52.79 5.52L48.87 5.52L43.07 16.75ZM45.59 16.86L48.90 10.40C49.49 9.27 49.88 8.39 50.03 7.80L50.03 16.86ZM56.23 21.38C57.22 21.84 58.95 22.47 60.96 22.47C65.01 22.47 66.92 19.93 66.92 16.67C66.92 13.43 65.06 11.74 61.86 11.74L59.71 11.74L59.87 7.93L66.57 7.93L66.57 5.52L57.02 5.52L56.73 14.17L60.87 14.17C62.89 14.17 63.94 14.89 63.94 16.84C63.94 18.86 62.82 20.02 60.61 20.02C59.43 20.02 57.87 19.69 56.82 19.32ZM68.34 21.16C69.17 21.64 70.88 22.45 73.14 22.45C77.01 22.45 79.07 20.06 79.07 17.17C79.07 15.13 78.06 13.71 76.40 13.14C77.76 12.51 78.87 11.48 78.87 9.46C78.87 7.05 77.30 5.32 73.97 5.32C71.95 5.32 69.83 5.96 68.27 6.84L69.28 9.09C70.31 8.46 71.78 7.86 73.38 7.86C75.13 7.86 75.85 8.56 75.85 9.92C75.85 11.76 74.36 12.44 72.63 12.44L71.14 12.44L71.14 14.85L73.05 14.85C74.73 14.85 76.11 15.38 76.11 17.15C76.11 18.68 75.11 19.84 72.94 19.84C71.30 19.84 69.81 19.21 69.17 18.88Z"/></g></svg>