<svg xmlns="http://www.w3.org/2000/svg" viewBox="0 0 83.503 28" data-ligne-id="JD494" class=""><g><g><path fill="rgb(226,0,26)" class="picto-outline" device-cmyk="0.00, 1.00, 1.00, 0.00" d="M3.6,0S0,5.4,0,14s3.6,14,3.6,14h31.4V0H3.6Z"/><rect y=".777" width="35" height="26.445" fill="none"/><path d="M7.646,19.394c.159.02.279.02.398.02,2.071,0,2.608-.915,2.608-2.667V6.238h2.607v11.067c0,2.966-1.97,4.458-4.1,4.458-.676,0-1.154-.099-1.513-.159v-2.21Z" fill="#fff"/><path d="M16.762,6.237h5.475c3.841,0,7.364,1.752,7.364,7.245,0,5.673-3.563,7.982-8.162,7.982h-4.677V6.237ZM21.261,19.275c3.125,0,5.673-1.313,5.673-5.474,0-3.523-1.713-5.354-4.917-5.354h-2.648v10.828h1.892Z" fill="#fff"/></g><path class="picto-outline" fill="rgb(23,41,123)" d="M39.333,0h44.1697v28h-44.1697V0.7z"/><path fill="#edd100" d="M43.07 19.13L49.84 19.13L49.84 22.02L52.52 22.02L52.52 19.13L54.59 19.13L54.59 16.77L52.52 16.77L52.52 5.74L48.71 5.74L43.07 16.66ZM45.52 16.77L48.73 10.49C49.31 9.38 49.69 8.53 49.84 7.95L49.84 16.77ZM55.93 21.32C56.97 21.88 58.74 22.19 60.06 22.19C64.53 22.19 66.32 18.68 66.32 13.61C66.32 8.59 64.87 5.55 60.89 5.55C57.80 5.55 55.72 7.74 55.72 11.10C55.72 14.49 58.31 15.64 60.08 15.64C61.70 15.64 62.83 14.91 63.40 14.55C63.40 17.87 62.38 19.77 59.97 19.77C58.40 19.77 57.36 19.34 56.70 19.06ZM60.97 12.98C59.42 12.98 58.63 12.06 58.63 10.63C58.63 9.12 59.19 7.80 60.93 7.80C62.74 7.80 63.32 9.91 63.32 12.27C62.64 12.72 62.08 12.98 60.97 12.98ZM67.55 19.13L74.32 19.13L74.32 22.02L77.01 22.02L77.01 19.13L79.07 19.13L79.07 16.77L77.01 16.77L77.01 5.74L73.19 5.74L67.55 16.66ZM70.00 16.77L73.22 10.49C73.79 9.38 74.17 8.53 74.32 7.95L74.32 16.77Z"/></g></svg>