<svg xmlns="http://www.w3.org/2000/svg" viewBox="0 0 83.503 28" data-ligne-id="JD54" class=""><g><g><path fill="rgb(226,0,26)" class="picto-outline" device-cmyk="0.00, 1.00, 1.00, 0.00" d="M3.6,0S0,5.4,0,14s3.6,14,3.6,14h31.4V0H3.6Z"/><rect y=".777" width="35" height="26.445" fill="none"/><path d="M7.646,19.394c.159.02.279.02.398.02,2.071,0,2.608-.915,2.608-2.667V6.238h2.607v11.067c0,2.966-1.97,4.458-4.1,4.458-.676,0-1.154-.099-1.513-.159v-2.21Z" fill="#fff"/><path d="M16.762,6.237h5.475c3.841,0,7.364,1.752,7.364,7.245,0,5.673-3.563,7.982-8.162,7.982h-4.677V6.237ZM21.261,19.275c3.125,0,5.673-1.313,5.673-5.474,0-3.523-1.713-5.354-4.917-5.354h-2.648v10.828h1.892Z" fill="#fff"/></g><path class="picto-outline" fill="rgb(23,41,123)" d="M39.333,0h44.1697v28h-44.1697V0.7z"/><path fill="#edd100" d="M46.99 22.64C48.15 23.18 50.19 23.93 52.57 23.93C57.35 23.93 59.60 20.94 59.60 17.09C59.60 13.26 57.40 11.27 53.63 11.27L51.10 11.27L51.28 6.77L59.18 6.77L59.18 3.93L47.92 3.93L47.58 14.14L52.47 14.14C54.84 14.14 56.08 14.99 56.08 17.29C56.08 19.67 54.77 21.04 52.16 21.04C50.76 21.04 48.93 20.65 47.69 20.21ZM61.17 20.19L69.39 20.19L69.39 23.70L72.65 23.70L72.65 20.19L75.15 20.19L75.15 17.32L72.65 17.32L72.65 3.93L68.02 3.93L61.17 17.19ZM64.15 17.32L68.05 9.69C68.74 8.35 69.21 7.32 69.39 6.62L69.39 17.32Z"/></g></svg>