<svg xmlns="http://www.w3.org/2000/svg" viewBox="0 0 83.503 28" data-ligne-id="JD57" class=""><g><g><path fill="rgb(226,0,26)" class="picto-outline" device-cmyk="0.00, 1.00, 1.00, 0.00" d="M3.6,0S0,5.4,0,14s3.6,14,3.6,14h31.4V0H3.6Z"/><rect y=".777" width="35" height="26.445" fill="none"/><path d="M7.646,19.394c.159.02.279.02.398.02,2.071,0,2.608-.915,2.608-2.667V6.238h2.607v11.067c0,2.966-1.97,4.458-4.1,4.458-.676,0-1.154-.099-1.513-.159v-2.21Z" fill="#fff"/><path d="M16.762,6.237h5.475c3.841,0,7.364,1.752,7.364,7.245,0,5.673-3.563,7.982-8.162,7.982h-4.677V6.237ZM21.261,19.275c3.125,0,5.673-1.313,5.673-5.474,0-3.523-1.713-5.354-4.917-5.354h-2.648v10.828h1.892Z" fill="#fff"/></g><path class="picto-outline" fill="rgb(23,41,123)" d="M39.333,0h44.1697v28h-44.1697V0.7z"/><path fill="#edd100" d="M47.41 22.64C48.58 23.18 50.62 23.93 53.00 23.93C57.78 23.93 60.02 20.94 60.02 17.09C60.02 13.26 57.83 11.27 54.05 11.27L51.52 11.27L51.70 6.77L59.61 6.77L59.61 3.93L48.34 3.93L48.01 14.14L52.89 14.14C55.27 14.14 56.51 14.99 56.51 17.29C56.51 19.67 55.19 21.04 52.58 21.04C51.19 21.04 49.35 20.65 48.11 20.21ZM64.68 23.70L68.29 23.70C68.29 19.75 68.37 18.48 69.82 16.34L71.57 13.73C74.37 9.59 74.73 8.43 74.73 6.10C74.73 5.28 74.65 4.53 74.57 3.93L62.01 3.93L62.01 6.85L71.16 6.85C71.16 7.09 71.14 7.32 71.11 7.55C70.95 8.48 70.46 9.38 69.04 11.50L67.57 13.70C65.17 17.27 64.68 19.02 64.68 23.70Z"/></g></svg>