<svg xmlns="http://www.w3.org/2000/svg" viewBox="0 0 83.503 28" data-ligne-id="JD577" class=""><g><g><path fill="rgb(226,0,26)" class="picto-outline" device-cmyk="0.00, 1.00, 1.00, 0.00" d="M3.6,0S0,5.4,0,14s3.6,14,3.6,14h31.4V0H3.6Z"/><rect y=".777" width="35" height="26.445" fill="none"/><path d="M7.646,19.394c.159.02.279.02.398.02,2.071,0,2.608-.915,2.608-2.667V6.238h2.607v11.067c0,2.966-1.97,4.458-4.1,4.458-.676,0-1.154-.099-1.513-.159v-2.21Z" fill="#fff"/><path d="M16.762,6.237h5.475c3.841,0,7.364,1.752,7.364,7.245,0,5.673-3.563,7.982-8.162,7.982h-4.677V6.237ZM21.261,19.275c3.125,0,5.673-1.313,5.673-5.474,0-3.523-1.713-5.354-4.917-5.354h-2.648v10.828h1.892Z" fill="#fff"/></g><path class="picto-outline" fill="rgb(23,41,123)" d="M39.333,0h44.1697v28h-44.1697V0.7z"/><path fill="#edd100" d="M43.07 21.33C44.06 21.80 45.81 22.44 47.84 22.44C51.92 22.44 53.84 19.88 53.84 16.59C53.84 13.32 51.96 11.63 48.74 11.63L46.58 11.63L46.73 7.79L53.48 7.79L53.48 5.36L43.86 5.36L43.58 14.07L47.75 14.07C49.78 14.07 50.84 14.80 50.84 16.77C50.84 18.80 49.71 19.96 47.48 19.96C46.29 19.96 44.72 19.63 43.67 19.26ZM57.81 22.24L60.89 22.24C60.89 18.86 60.96 17.78 62.20 15.95L63.70 13.72C66.08 10.19 66.39 9.20 66.39 7.21C66.39 6.51 66.32 5.87 66.25 5.36L55.53 5.36L55.53 7.85L63.34 7.85C63.34 8.05 63.32 8.25 63.30 8.45C63.17 9.24 62.75 10.02 61.53 11.82L60.28 13.70C58.22 16.74 57.81 18.24 57.81 22.24ZM70.49 22.24L73.58 22.24C73.58 18.86 73.64 17.78 74.88 15.95L76.38 13.72C78.76 10.19 79.07 9.20 79.07 7.21C79.07 6.51 79.00 5.87 78.94 5.36L68.22 5.36L68.22 7.85L76.03 7.85C76.03 8.05 76.00 8.25 75.98 8.45C75.85 9.24 75.43 10.02 74.22 11.82L72.96 13.70C70.91 16.74 70.49 18.24 70.49 22.24Z"/></g></svg>