<svg xmlns="http://www.w3.org/2000/svg" viewBox="0 0 83.503 28" data-ligne-id="JD61" class=""><g><g><path fill="rgb(226,0,26)" class="picto-outline" device-cmyk="0.00, 1.00, 1.00, 0.00" d="M3.6,0S0,5.4,0,14s3.6,14,3.6,14h31.4V0H3.6Z"/><rect y=".777" width="35" height="26.445" fill="none"/><path d="M7.646,19.394c.159.02.279.02.398.02,2.071,0,2.608-.915,2.608-2.667V6.238h2.607v11.067c0,2.966-1.97,4.458-4.1,4.458-.676,0-1.154-.099-1.513-.159v-2.21Z" fill="#fff"/><path d="M16.762,6.237h5.475c3.841,0,7.364,1.752,7.364,7.245,0,5.673-3.563,7.982-8.162,7.982h-4.677V6.237ZM21.261,19.275c3.125,0,5.673-1.313,5.673-5.474,0-3.523-1.713-5.354-4.917-5.354h-2.648v10.828h1.892Z" fill="#fff"/></g><path class="picto-outline" fill="rgb(23,41,123)" d="M39.333,0h44.1697v28h-44.1697V0.7z"/><path fill="#edd100" d="M53.71 23.93C57.60 23.93 60.07 21.17 60.07 17.24C60.07 13.02 57.21 12.03 55.14 12.03C53.31 12.03 51.62 12.82 50.93 13.25C51.24 8.83 53.23 6.79 56.09 6.79C57.14 6.79 57.85 7.07 58.41 7.35L59.31 4.70C58.41 4.26 56.98 3.93 55.55 3.93C50.11 3.93 47.38 8.66 47.38 15.04C47.38 20.30 49.24 23.93 53.71 23.93ZM53.94 21.22C51.77 21.22 50.93 19.43 50.93 15.86C51.95 15.30 53.15 15.02 54.12 15.02C55.83 15.02 56.57 15.88 56.57 17.85C56.57 19.79 55.86 21.22 53.94 21.22ZM62.55 23.70L74.76 23.70L74.76 21.02L70.85 21.02L70.85 4.16L67.99 4.16L61.68 7.61L62.91 9.98L67.43 7.43L67.43 21.02L62.55 21.02Z"/></g></svg>