<svg xmlns="http://www.w3.org/2000/svg" viewBox="0 0 83.503 28" data-ligne-id="JD686" class=""><g><g><path fill="rgb(226,0,26)" class="picto-outline" device-cmyk="0.00, 1.00, 1.00, 0.00" d="M3.6,0S0,5.4,0,14s3.6,14,3.6,14h31.4V0H3.6Z"/><path d="M7.646,19.394c.159.02.279.02.398.02,2.071,0,2.608-.915,2.608-2.667V6.238h2.607v11.067c0,2.966-1.97,4.458-4.1,4.458-.676,0-1.154-.099-1.513-.159v-2.21Z" fill="#fff"/><path d="M16.762,6.237h5.475c3.841,0,7.364,1.752,7.364,7.245,0,5.673-3.563,7.982-8.162,7.982h-4.677V6.237ZM21.261,19.275c3.125,0,5.673-1.313,5.673-5.474,0-3.523-1.713-5.354-4.917-5.354h-2.648v10.828h1.892Z" fill="#fff"/></g><path class="picto-outline" fill="rgb(23,41,123)" d="M39.333,0h44.1697v28h-44.1697V0.7z"/><path fill="#edd100" d="M49.19 23.10C52.76 23.10 55.04 20.57 55.04 16.95C55.04 13.08 52.41 12.16 50.51 12.16C48.82 12.16 47.27 12.89 46.63 13.29C46.91 9.23 48.75 7.35 51.38 7.35C52.34 7.35 52.99 7.61 53.51 7.87L54.33 5.42C53.51 5.03 52.20 4.72 50.88 4.72C45.88 4.72 43.37 9.06 43.37 14.93C43.37 19.77 45.08 23.10 49.19 23.10ZM49.40 20.61C47.41 20.61 46.63 18.97 46.63 15.68C47.57 15.17 48.68 14.91 49.57 14.91C51.14 14.91 51.82 15.71 51.82 17.51C51.82 19.30 51.16 20.61 49.40 20.61ZM55.64 18.13C55.64 20.68 57.29 23.08 61.14 23.08C65.20 23.08 67.26 20.43 67.26 17.59C67.26 15.43 66.09 13.92 63.88 12.94C65.22 12.30 66.54 11.06 66.54 8.99C66.54 6.41 64.73 4.72 61.61 4.72C58.60 4.72 56.16 6.57 56.16 9.70C56.16 11.08 56.63 12.44 58.55 13.62C57.03 14.46 55.64 15.78 55.64 18.13ZM61.46 12.09C59.84 11.41 59.56 10.50 59.56 9.56C59.56 7.82 60.50 7.21 61.56 7.21C62.83 7.21 63.30 8.05 63.30 9.25C63.30 10.52 62.76 11.46 61.46 12.09ZM59.00 18.03C59.00 16.69 59.56 15.47 60.67 14.82C62.71 15.54 63.93 16.18 63.93 18.05C63.93 19.60 63.08 20.73 61.49 20.73C60.10 20.73 59.00 19.89 59.00 18.03ZM73.78 23.10C77.35 23.10 79.63 20.57 79.63 16.95C79.63 13.08 77.00 12.16 75.10 12.16C73.41 12.16 71.86 12.89 71.23 13.29C71.51 9.23 73.34 7.35 75.97 7.35C76.93 7.35 77.59 7.61 78.10 7.87L78.93 5.42C78.10 5.03 76.79 4.72 75.48 4.72C70.47 4.72 67.96 9.06 67.96 14.93C67.96 19.77 69.68 23.10 73.78 23.10ZM74.00 20.61C72.00 20.61 71.23 18.97 71.23 15.68C72.16 15.17 73.27 14.91 74.16 14.91C75.73 14.91 76.41 15.71 76.41 17.51C76.41 19.30 75.76 20.61 74.00 20.61Z"/></g></svg>