<svg xmlns="http://www.w3.org/2000/svg" viewBox="0 0 83.503 28" data-ligne-id="JD703" class=""><g><g><path fill="rgb(226,0,26)" class="picto-outline" device-cmyk="0.00, 1.00, 1.00, 0.00" d="M3.6,0S0,5.4,0,14s3.6,14,3.6,14h31.4V0H3.6Z"/><rect y=".777" width="35" height="26.445" fill="none"/><path d="M7.646,19.394c.159.02.279.02.398.02,2.071,0,2.608-.915,2.608-2.667V6.238h2.607v11.067c0,2.966-1.97,4.458-4.1,4.458-.676,0-1.154-.099-1.513-.159v-2.21Z" fill="#fff"/><path d="M16.762,6.237h5.475c3.841,0,7.364,1.752,7.364,7.245,0,5.673-3.563,7.982-8.162,7.982h-4.677V6.237ZM21.261,19.275c3.125,0,5.673-1.313,5.673-5.474,0-3.523-1.713-5.354-4.917-5.354h-2.648v10.828h1.892Z" fill="#fff"/></g><path class="picto-outline" fill="rgb(23,41,123)" d="M39.333,0h44.1697v28h-44.1697V0.7z"/><path fill="#edd100" d="M45.35 22.36L48.44 22.36C48.44 18.97 48.51 17.89 49.75 16.06L51.25 13.82C53.64 10.28 53.95 9.29 53.95 7.30C53.95 6.59 53.88 5.95 53.82 5.44L43.07 5.44L43.07 7.94L50.90 7.94C50.90 8.14 50.88 8.34 50.85 8.54C50.72 9.33 50.30 10.11 49.09 11.92L47.82 13.80C45.77 16.85 45.35 18.35 45.35 22.36ZM61.45 22.56C66.55 22.56 67.39 18.49 67.39 13.93C67.39 9.60 66.22 5.24 61.45 5.24C56.69 5.24 55.52 9.60 55.52 13.93C55.52 18.49 56.36 22.56 61.45 22.56ZM61.45 19.97C59.57 19.97 58.62 18.35 58.62 14.18C58.62 10.62 59.17 7.94 61.45 7.94C63.75 7.94 64.30 10.62 64.30 14.18C64.30 18.35 63.35 19.97 61.45 19.97ZM68.24 21.23C69.08 21.72 70.80 22.53 73.08 22.53C76.99 22.53 79.07 20.12 79.07 17.20C79.07 15.15 78.05 13.71 76.37 13.14C77.74 12.49 78.87 11.46 78.87 9.42C78.87 6.99 77.28 5.24 73.92 5.24C71.88 5.24 69.74 5.88 68.17 6.77L69.19 9.05C70.23 8.40 71.71 7.81 73.32 7.81C75.09 7.81 75.82 8.51 75.82 9.89C75.82 11.74 74.32 12.43 72.57 12.43L71.07 12.43L71.07 14.86L72.99 14.86C74.69 14.86 76.09 15.39 76.09 17.18C76.09 18.73 75.07 19.90 72.88 19.90C71.22 19.90 69.72 19.26 69.08 18.93Z"/></g></svg>