<svg xmlns="http://www.w3.org/2000/svg" viewBox="0 0 83.503 28" data-ligne-id="JD71" class=""><g><g><path fill="rgb(226,0,26)" class="picto-outline" device-cmyk="0.00, 1.00, 1.00, 0.00" d="M3.6,0S0,5.4,0,14s3.6,14,3.6,14h31.4V0H3.6Z"/><rect y=".777" width="35" height="26.445" fill="none"/><path d="M7.646,19.394c.159.02.279.02.398.02,2.071,0,2.608-.915,2.608-2.667V6.238h2.607v11.067c0,2.966-1.97,4.458-4.1,4.458-.676,0-1.154-.099-1.513-.159v-2.21Z" fill="#fff"/><path d="M16.762,6.237h5.475c3.841,0,7.364,1.752,7.364,7.245,0,5.673-3.563,7.982-8.162,7.982h-4.677V6.237ZM21.261,19.275c3.125,0,5.673-1.313,5.673-5.474,0-3.523-1.713-5.354-4.917-5.354h-2.648v10.828h1.892Z" fill="#fff"/></g><path class="picto-outline" fill="rgb(23,41,123)" d="M39.333,0h44.1697v28h-44.1697V0.7z"/><path fill="#edd100" d="M49.61 23.70L53.27 23.70C53.27 19.70 53.34 18.42 54.81 16.25L56.59 13.61C59.41 9.43 59.78 8.25 59.78 5.90C59.78 5.06 59.70 4.30 59.62 3.70L46.91 3.70L46.91 6.65L56.17 6.65C56.17 6.89 56.14 7.12 56.12 7.36C55.96 8.30 55.46 9.22 54.02 11.36L52.53 13.58C50.10 17.19 49.61 18.97 49.61 23.70ZM62.73 23.70L75.23 23.70L75.23 20.95L71.23 20.95L71.23 3.70L68.30 3.70L61.84 7.23L63.10 9.66L67.72 7.05L67.72 20.95L62.73 20.95Z"/></g></svg>