<svg xmlns="http://www.w3.org/2000/svg" viewBox="0 0 83.503 28" data-ligne-id="JD72" class=""><g><g><path fill="rgb(226,0,26)" class="picto-outline" device-cmyk="0.00, 1.00, 1.00, 0.00" d="M3.6,0S0,5.4,0,14s3.6,14,3.6,14h31.4V0H3.6Z"/><rect y=".777" width="35" height="26.445" fill="none"/><path d="M7.646,19.394c.159.02.279.02.398.02,2.071,0,2.608-.915,2.608-2.667V6.238h2.607v11.067c0,2.966-1.97,4.458-4.1,4.458-.676,0-1.154-.099-1.513-.159v-2.21Z" fill="#fff"/><path d="M16.762,6.237h5.475c3.841,0,7.364,1.752,7.364,7.245,0,5.673-3.563,7.982-8.162,7.982h-4.677V6.237ZM21.261,19.275c3.125,0,5.673-1.313,5.673-5.474,0-3.523-1.713-5.354-4.917-5.354h-2.648v10.828h1.892Z" fill="#fff"/></g><path class="picto-outline" fill="rgb(23,41,123)" d="M39.333,0h44.1697v28h-44.1697V0.7z"/><path fill="#edd100" d="M49.89 23.70L53.51 23.70C53.51 19.75 53.59 18.48 55.04 16.34L56.79 13.73C59.58 9.59 59.95 8.43 59.95 6.10C59.95 5.28 59.87 4.53 59.79 3.93L47.23 3.93L47.23 6.85L56.38 6.85C56.38 7.09 56.35 7.32 56.33 7.55C56.17 8.48 55.68 9.38 54.26 11.50L52.79 13.70C50.39 17.27 49.89 19.02 49.89 23.70ZM62.27 23.70L74.91 23.70L74.91 20.81L66.10 20.81C66.15 19.98 66.30 19.31 67.88 18.12L70.75 15.97C73.28 14.06 74.60 12.54 74.60 9.31C74.60 5.69 71.86 3.70 67.93 3.70C66.17 3.70 63.90 4.32 62.09 5.41L63.23 7.86C64.18 7.34 66.02 6.62 67.67 6.62C69.43 6.62 70.98 7.37 70.98 9.77C70.98 11.50 70.00 12.56 68.29 13.83L65.92 15.61C63.36 17.55 62.27 19.15 62.27 21.17Z"/></g></svg>