<svg xmlns="http://www.w3.org/2000/svg" viewBox="0 0 83.503 28" data-ligne-id="JD754" class=""><g><g><path fill="rgb(226,0,26)" class="picto-outline" device-cmyk="0.00, 1.00, 1.00, 0.00" d="M3.6,0S0,5.4,0,14s3.6,14,3.6,14h31.4V0H3.6Z"/><path d="M7.646,19.394c.159.02.279.02.398.02,2.071,0,2.608-.915,2.608-2.667V6.238h2.607v11.067c0,2.966-1.97,4.458-4.1,4.458-.676,0-1.154-.099-1.513-.159v-2.21Z" fill="#fff"/><path d="M16.762,6.237h5.475c3.841,0,7.364,1.752,7.364,7.245,0,5.673-3.563,7.982-8.162,7.982h-4.677V6.237ZM21.261,19.275c3.125,0,5.673-1.313,5.673-5.474,0-3.523-1.713-5.354-4.917-5.354h-2.648v10.828h1.892Z" fill="#fff"/></g><path class="picto-outline" fill="rgb(23,41,123)" d="M39.333,0h44.1697v28h-44.1697V0.7z"/><path fill="#edd100" d="M45.76 22.69L49.02 22.69C49.02 19.14 49.09 18.00 50.39 16.07L51.97 13.72C54.48 10.01 54.80 8.96 54.80 6.87C54.80 6.13 54.73 5.45 54.66 4.92L43.37 4.92L43.37 7.54L51.60 7.54C51.60 7.75 51.57 7.96 51.55 8.17C51.41 9.01 50.97 9.82 49.69 11.73L48.37 13.70C46.21 16.91 45.76 18.49 45.76 22.69ZM55.68 21.74C56.73 22.23 58.56 22.90 60.70 22.90C65.00 22.90 67.02 20.21 67.02 16.74C67.02 13.31 65.04 11.52 61.65 11.52L59.37 11.52L59.54 7.47L66.65 7.47L66.65 4.92L56.52 4.92L56.21 14.09L60.61 14.09C62.74 14.09 63.86 14.86 63.86 16.93C63.86 19.07 62.67 20.30 60.33 20.30C59.07 20.30 57.42 19.95 56.31 19.56ZM67.06 19.53L74.45 19.53L74.45 22.69L77.38 22.69L77.38 19.53L79.63 19.53L79.63 16.95L77.38 16.95L77.38 4.92L73.22 4.92L67.06 16.84ZM69.73 16.95L73.24 10.10C73.87 8.89 74.29 7.96 74.45 7.33L74.45 16.95Z"/></g></svg>