<svg xmlns="http://www.w3.org/2000/svg" viewBox="0 0 83.503 28" data-ligne-id="JD8" class=""><g><g><path fill="rgb(226,0,26)" class="picto-outline" device-cmyk="0.00, 1.00, 1.00, 0.00" d="M3.6,0S0,5.4,0,14s3.6,14,3.6,14h31.4V0H3.6Z"/><rect y=".777" width="35" height="26.445" fill="none"/><path d="M7.646,19.394c.159.02.279.02.398.02,2.071,0,2.608-.915,2.608-2.667V6.238h2.607v11.067c0,2.966-1.97,4.458-4.1,4.458-.676,0-1.154-.099-1.513-.159v-2.21Z" fill="#fff"/><path d="M16.762,6.237h5.475c3.841,0,7.364,1.752,7.364,7.245,0,5.673-3.563,7.982-8.162,7.982h-4.677V6.237ZM21.261,19.275c3.125,0,5.673-1.313,5.673-5.474,0-3.523-1.713-5.354-4.917-5.354h-2.648v10.828h1.892Z" fill="#fff"/></g><path class="picto-outline" fill="rgb(23,41,123)" d="M39.333,0h44.1697v28h-44.1697V0.7z"/><path fill="#edd100" d="M54.74 18.51C54.74 21.30 56.53 23.90 60.73 23.90C65.15 23.90 67.40 21.01 67.40 17.92C67.40 15.57 66.12 13.93 63.72 12.86C65.18 12.17 66.61 10.81 66.61 8.56C66.61 5.75 64.64 3.90 61.24 3.90C57.96 3.90 55.30 5.93 55.30 9.33C55.30 10.84 55.81 12.32 57.91 13.60C56.25 14.52 54.74 15.95 54.74 18.51ZM61.08 11.94C59.32 11.19 59.01 10.20 59.01 9.17C59.01 7.28 60.03 6.62 61.19 6.62C62.57 6.62 63.08 7.54 63.08 8.84C63.08 10.22 62.49 11.24 61.08 11.94ZM58.40 18.41C58.40 16.95 59.01 15.62 60.21 14.90C62.44 15.69 63.77 16.39 63.77 18.43C63.77 20.12 62.85 21.35 61.11 21.35C59.60 21.35 58.40 20.43 58.40 18.41Z"/></g></svg>