<svg xmlns="http://www.w3.org/2000/svg" viewBox="0 0 83.503 28" data-ligne-id="JD805" class=""><g><g><path fill="rgb(226,0,26)" class="picto-outline" device-cmyk="0.00, 1.00, 1.00, 0.00" d="M3.6,0S0,5.4,0,14s3.6,14,3.6,14h31.4V0H3.6Z"/><path d="M7.646,19.394c.159.02.279.02.398.02,2.071,0,2.608-.915,2.608-2.667V6.238h2.607v11.067c0,2.966-1.97,4.458-4.1,4.458-.676,0-1.154-.099-1.513-.159v-2.21Z" fill="#fff"/><path d="M16.762,6.237h5.475c3.841,0,7.364,1.752,7.364,7.245,0,5.673-3.563,7.982-8.162,7.982h-4.677V6.237ZM21.261,19.275c3.125,0,5.673-1.313,5.673-5.474,0-3.523-1.713-5.354-4.917-5.354h-2.648v10.828h1.892Z" fill="#fff"/></g><path class="picto-outline" fill="rgb(23,41,123)" d="M39.333,0h44.1697v28h-44.1697V0.7z"/><path fill="#edd100" d="M43.37 18.03C43.37 20.54 44.98 22.89 48.75 22.89C52.73 22.89 54.76 20.29 54.76 17.51C54.76 15.39 53.61 13.92 51.44 12.95C52.75 12.33 54.04 11.11 54.04 9.09C54.04 6.56 52.27 4.90 49.21 4.90C46.27 4.90 43.88 6.72 43.88 9.78C43.88 11.14 44.34 12.47 46.22 13.62C44.73 14.45 43.37 15.74 43.37 18.03ZM49.08 12.12C47.49 11.46 47.21 10.56 47.21 9.64C47.21 7.94 48.13 7.34 49.17 7.34C50.41 7.34 50.87 8.17 50.87 9.34C50.87 10.58 50.34 11.50 49.08 12.12ZM46.66 17.94C46.66 16.63 47.21 15.44 48.29 14.79C50.29 15.51 51.49 16.13 51.49 17.97C51.49 19.48 50.66 20.59 49.10 20.59C47.74 20.59 46.66 19.76 46.66 17.94ZM61.07 22.91C66.39 22.91 67.26 18.68 67.26 13.94C67.26 9.43 66.04 4.90 61.07 4.90C56.13 4.90 54.91 9.43 54.91 13.94C54.91 18.68 55.79 22.91 61.07 22.91ZM61.07 20.22C59.12 20.22 58.13 18.54 58.13 14.19C58.13 10.49 58.71 7.71 61.07 7.71C63.47 7.71 64.04 10.49 64.04 14.19C64.04 18.54 63.05 20.22 61.07 20.22ZM68.41 21.76C69.44 22.24 71.26 22.91 73.37 22.91C77.63 22.91 79.63 20.24 79.63 16.82C79.63 13.41 77.67 11.64 74.32 11.64L72.06 11.64L72.22 7.64L79.26 7.64L79.26 5.11L69.23 5.11L68.93 14.19L73.28 14.19C75.40 14.19 76.50 14.95 76.50 17.00C76.50 19.12 75.33 20.33 73.00 20.33C71.76 20.33 70.13 19.99 69.03 19.60Z"/></g></svg>