<svg xmlns="http://www.w3.org/2000/svg" viewBox="0 0 83.503 28" data-ligne-id="JD810" class=""><g><g><path fill="rgb(226,0,26)" class="picto-outline" device-cmyk="0.00, 1.00, 1.00, 0.00" d="M3.6,0S0,5.4,0,14s3.6,14,3.6,14h31.4V0H3.6Z"/><path d="M7.646,19.394c.159.02.279.02.398.02,2.071,0,2.608-.915,2.608-2.667V6.238h2.607v11.067c0,2.966-1.97,4.458-4.1,4.458-.676,0-1.154-.099-1.513-.159v-2.21Z" fill="#fff"/><path d="M16.762,6.237h5.475c3.841,0,7.364,1.752,7.364,7.245,0,5.673-3.563,7.982-8.162,7.982h-4.677V6.237ZM21.261,19.275c3.125,0,5.673-1.313,5.673-5.474,0-3.523-1.713-5.354-4.917-5.354h-2.648v10.828h1.892Z" fill="#fff"/></g><path class="picto-outline" fill="rgb(23,41,123)" d="M39.333,0h44.1697v28h-44.1697V0.7z"/><path fill="#edd100" d="M43.37 18.03C43.37 20.53 44.98 22.88 48.75 22.88C52.72 22.88 54.74 20.28 54.74 17.50C54.74 15.39 53.59 13.92 51.43 12.95C52.74 12.33 54.03 11.12 54.03 9.10C54.03 6.57 52.26 4.91 49.21 4.91C46.27 4.91 43.88 6.73 43.88 9.78C43.88 11.14 44.34 12.47 46.22 13.62C44.73 14.45 43.37 15.73 43.37 18.03ZM49.07 12.13C47.48 11.46 47.21 10.56 47.21 9.65C47.21 7.95 48.13 7.35 49.16 7.35C50.40 7.35 50.86 8.18 50.86 9.35C50.86 10.59 50.33 11.51 49.07 12.13ZM46.66 17.94C46.66 16.63 47.21 15.43 48.29 14.79C50.29 15.50 51.48 16.12 51.48 17.96C51.48 19.48 50.65 20.58 49.09 20.58C47.74 20.58 46.66 19.75 46.66 17.94ZM55.86 22.69L66.84 22.69L66.84 20.28L63.33 20.28L63.33 5.12L60.75 5.12L55.08 8.22L56.18 10.36L60.25 8.06L60.25 20.28L55.86 20.28ZM73.45 22.90C78.75 22.90 79.63 18.67 79.63 13.94C79.63 9.44 78.41 4.91 73.45 4.91C68.51 4.91 67.29 9.44 67.29 13.94C67.29 18.67 68.17 22.90 73.45 22.90ZM73.45 20.21C71.50 20.21 70.51 18.53 70.51 14.19C70.51 10.50 71.08 7.72 73.45 7.72C75.84 7.72 76.41 10.50 76.41 14.19C76.41 18.53 75.42 20.21 73.45 20.21Z"/></g></svg>