<svg xmlns="http://www.w3.org/2000/svg" viewBox="0 0 83.503 28" data-ligne-id="JD954" class=""><g><g><path fill="rgb(226,0,26)" class="picto-outline" device-cmyk="0.00, 1.00, 1.00, 0.00" d="M3.6,0S0,5.4,0,14s3.6,14,3.6,14h31.4V0H3.6Z"/><path d="M7.646,19.394c.159.02.279.02.398.02,2.071,0,2.608-.915,2.608-2.667V6.238h2.607v11.067c0,2.966-1.97,4.458-4.1,4.458-.676,0-1.154-.099-1.513-.159v-2.21Z" fill="#fff"/><path d="M16.762,6.237h5.475c3.841,0,7.364,1.752,7.364,7.245,0,5.673-3.563,7.982-8.162,7.982h-4.677V6.237ZM21.261,19.275c3.125,0,5.673-1.313,5.673-5.474,0-3.523-1.713-5.354-4.917-5.354h-2.648v10.828h1.892Z" fill="#fff"/></g><path class="picto-outline" fill="rgb(23,41,123)" d="M39.333,0h44.1697v28h-44.1697V0.7z"/><path fill="#edd100" d="M43.60 22.01C44.74 22.62 46.66 22.96 48.10 22.96C52.97 22.96 54.92 19.14 54.92 13.62C54.92 8.15 53.34 4.83 49.01 4.83C45.64 4.83 43.37 7.22 43.37 10.88C43.37 14.57 46.20 15.82 48.12 15.82C49.89 15.82 51.12 15.03 51.74 14.64C51.74 18.26 50.63 20.32 48.01 20.32C46.29 20.32 45.16 19.86 44.44 19.56ZM49.10 12.92C47.41 12.92 46.55 11.93 46.55 10.37C46.55 8.73 47.15 7.29 49.05 7.29C51.02 7.29 51.65 9.58 51.65 12.16C50.91 12.64 50.30 12.92 49.10 12.92ZM55.73 21.83C56.77 22.31 58.60 22.99 60.73 22.99C65.02 22.99 67.04 20.30 67.04 16.84C67.04 13.41 65.07 11.62 61.69 11.62L59.41 11.62L59.58 7.59L66.67 7.59L66.67 5.04L56.56 5.04L56.26 14.20L60.64 14.20C62.78 14.20 63.89 14.96 63.89 17.03C63.89 19.16 62.71 20.39 60.36 20.39C59.11 20.39 57.47 20.04 56.35 19.65ZM67.08 19.62L74.46 19.62L74.46 22.78L77.38 22.78L77.38 19.62L79.63 19.62L79.63 17.05L77.38 17.05L77.38 5.04L73.23 5.04L67.08 16.93ZM69.75 17.05L73.25 10.21C73.88 9.00 74.30 8.08 74.46 7.45L74.46 17.05Z"/></g></svg>