<svg xmlns="http://www.w3.org/2000/svg" viewBox="0 0 83.503 28" data-ligne-id="JD957" class=""><g><g><path fill="rgb(226,0,26)" class="picto-outline" device-cmyk="0.00, 1.00, 1.00, 0.00" d="M3.6,0S0,5.4,0,14s3.6,14,3.6,14h31.4V0H3.6Z"/><rect y=".777" width="35" height="26.445" fill="none"/><path d="M7.646,19.394c.159.02.279.02.398.02,2.071,0,2.608-.915,2.608-2.667V6.238h2.607v11.067c0,2.966-1.97,4.458-4.1,4.458-.676,0-1.154-.099-1.513-.159v-2.21Z" fill="#fff"/><path d="M16.762,6.237h5.475c3.841,0,7.364,1.752,7.364,7.245,0,5.673-3.563,7.982-8.162,7.982h-4.677V6.237ZM21.261,19.275c3.125,0,5.673-1.313,5.673-5.474,0-3.523-1.713-5.354-4.917-5.354h-2.648v10.828h1.892Z" fill="#fff"/></g><path class="picto-outline" fill="rgb(23,41,123)" d="M39.333,0h44.1697v28h-44.1697V0.7z"/><path fill="#edd100" d="M43.29 21.57C44.37 22.15 46.19 22.47 47.55 22.47C52.16 22.47 54.01 18.85 54.01 13.62C54.01 8.44 52.52 5.30 48.41 5.30C45.22 5.30 43.07 7.56 43.07 11.03C43.07 14.52 45.75 15.71 47.57 15.71C49.24 15.71 50.41 14.96 51.00 14.59C51.00 18.02 49.95 19.97 47.46 19.97C45.84 19.97 44.76 19.53 44.08 19.25ZM48.50 12.96C46.89 12.96 46.08 12.02 46.08 10.55C46.08 8.99 46.65 7.63 48.45 7.63C50.32 7.63 50.91 9.80 50.91 12.24C50.21 12.70 49.64 12.96 48.50 12.96ZM55.85 21.40C56.84 21.86 58.58 22.50 60.60 22.50C64.66 22.50 66.57 19.95 66.57 16.68C66.57 13.43 64.71 11.73 61.50 11.73L59.35 11.73L59.50 7.91L66.22 7.91L66.22 5.50L56.64 5.50L56.36 14.17L60.51 14.17C62.53 14.17 63.59 14.90 63.59 16.85C63.59 18.87 62.47 20.04 60.25 20.04C59.06 20.04 57.50 19.71 56.45 19.33ZM70.53 22.30L73.60 22.30C73.60 18.94 73.67 17.86 74.90 16.04L76.39 13.82C78.76 10.31 79.07 9.32 79.07 7.34C79.07 6.64 79.00 6.00 78.94 5.50L68.26 5.50L68.26 7.98L76.04 7.98C76.04 8.18 76.02 8.37 76.00 8.57C75.86 9.36 75.45 10.13 74.24 11.93L72.99 13.80C70.94 16.83 70.53 18.32 70.53 22.30Z"/></g></svg>