<svg xmlns="http://www.w3.org/2000/svg" viewBox="0 0 67.333 28" data-ligne-id="TB12" class=""><g><g><path fill="rgb(226,0,26)" class="picto-outline" device-cmyk="0.00, 1.00, 1.00, 0.00" d="M3.6,0S0,5.4,0,14s3.6,14,3.6,14h31.4V0H3.6Z"/><path d="M19.155,12.499h3.978c2.39,0,3.207,1.225,3.207,2.697,0,1.312-.743,2.041-1.486,2.317,1.02.205,2.011,1.05,2.011,2.711,0,2.085-1.618,3.426-3.848,3.426h-3.862v-11.15h0ZM22.564,17.192c1.078,0,1.982-.467,1.982-1.618,0-.86-.554-1.545-1.851-1.545h-1.633v3.163h1.502ZM22.827,22.132c.992,0,2.084-.466,2.084-1.822,0-1.166-.583-1.735-1.763-1.735h-2.085v3.556h1.764Z" fill="#fff"/><polygon points="12.932 7.788 8.018 7.788 8.018 5.039 21.033 5.039 21.033 7.788 16.119 7.788 16.119 23.649 12.932 23.649 12.932 7.788" fill="#fff"/></g><path class="picto-outline" fill="#80682E" d="M39.333 0h28v28h-28z"/><path fill="#FFFFFF" d="M41.92 22.64L52.59 22.64L52.59 20.30L49.17 20.30L49.17 5.56L46.67 5.56L41.16 8.57L42.23 10.65L46.18 8.42L46.18 20.30L41.92 20.30ZM54.24 22.64L65.16 22.64L65.16 20.14L57.55 20.14C57.59 19.43 57.73 18.84 59.09 17.82L61.57 15.96C63.75 14.31 64.89 13.00 64.89 10.20C64.89 7.08 62.53 5.36 59.13 5.36C57.61 5.36 55.65 5.90 54.09 6.83L55.07 8.95C55.89 8.51 57.48 7.88 58.91 7.88C60.43 7.88 61.77 8.53 61.77 10.61C61.77 12.10 60.92 13.02 59.44 14.11L57.39 15.65C55.18 17.33 54.24 18.71 54.24 20.45Z"/></g></svg>